<svg version="1.1" viewBox="0.0 0.0 960.0 377.9527559055118" fill="none" stroke="none" stroke-linecap="square" stroke-miterlimit="10" xmlns:xlink="http://www.w3.org/1999/xlink" xmlns="http://www.w3.org/2000/svg"><clipPath id="p.0"><path d="m0 0l960.0 0l0 377.95276l-960.0 0l0 -377.95276z" clip-rule="nonzero"/></clipPath><g clip-path="url(#p.0)"><path fill="#ffffff" fill-opacity="0.0" d="m0 0l960.0 0l0 377.95276l-960.0 0z" fill-rule="evenodd"/><path fill="#31394d" d="m9.358952 233.14877l252.4819 0l0 109.43521l-252.4819 0z" fill-rule="evenodd"/><path fill="#ffffff" d="m95.3334 303.3264l0 -28.453125l11.4375 0q4.046875 0 6.46875 2.4375q2.4375 2.421875 2.4375 6.140625q0 3.75 -2.484375 6.171875q-2.46875 2.40625 -6.421875 2.40625l-7.890625 0l0 11.296875l-3.546875 0zm11.0 -14.453125q2.5625 0 4.109375 -1.5q1.5625 -1.5 1.5625 -3.921875q0 -2.4375 -1.5625 -3.921875q-1.546875 -1.5 -4.109375 -1.5l-7.453125 0l0 10.84375l7.453125 0zm13.914185 14.453125l0 -20.609375l3.1875 0l0 3.328125q2.859375 -3.75 6.8750076 -3.75l0 3.28125l-1.28125 -0.125q-1.4531326 0 -3.2031326 1.046875q-1.75 1.046875 -2.390625 2.234375l0 14.59375l-3.1875 0zm15.654671 -23.546875q-0.859375 0 -1.5 -0.609375q-0.640625 -0.625 -0.640625 -1.515625q0 -0.90625 0.640625 -1.546875q0.640625 -0.640625 1.5 -0.640625q0.890625 0 1.53125 0.640625q0.640625 0.640625 0.640625 1.546875q0 0.890625 -0.640625 1.515625q-0.640625 0.609375 -1.53125 0.609375zm-1.578125 23.546875l0 -20.609375l3.1875 0l0 20.609375l-3.1875 0zm18.597626 0.515625q-4.484375 0 -7.34375 -3.046875q-2.859375 -3.0625 -2.859375 -7.796875q0 -4.765625 2.859375 -7.765625q2.859375 -3.015625 7.34375 -3.015625q4.46875 0 7.328125 3.015625q2.859375 3.0 2.859375 7.765625q0 4.734375 -2.859375 7.796875q-2.859375 3.046875 -7.328125 3.046875zm0 -2.859375q2.984375 0 4.90625 -2.234375q1.921875 -2.25 1.921875 -5.75q0 -3.453125 -1.921875 -5.6875q-1.921875 -2.234375 -4.90625 -2.234375q-2.984375 0 -4.9375 2.21875q-1.9375 2.203125 -1.9375 5.703125q0 3.546875 1.921875 5.765625q1.921875 2.21875 4.953125 2.21875zm15.399353 2.34375l0 -20.609375l3.1875 0l0 3.328125q2.859375 -3.75 6.875 -3.75l0 3.28125l-1.28125 -0.125q-1.453125 0 -3.203125 1.046875q-1.75 1.046875 -2.390625 2.234375l0 14.59375l-3.1875 0z" fill-rule="nonzero"/><path fill="#31394d" d="m353.75906 233.14842l252.4819 0l0 109.435196l-252.4819 0z" fill-rule="evenodd"/><path fill="#ffffff" d="m386.71188 303.32602l0 -28.453125l3.546875 0l0 25.296875l13.21875 0l0 3.15625l-16.765625 0zm23.207794 -23.546875q-0.859375 0 -1.5 -0.609375q-0.640625 -0.625 -0.640625 -1.515625q0 -0.90625 0.640625 -1.546875q0.640625 -0.640625 1.5 -0.640625q0.890625 0 1.53125 0.640625q0.640625 0.640625 0.640625 1.546875q0 0.890625 -0.640625 1.515625q-0.640625 0.609375 -1.53125 0.609375zm-1.578125 23.546875l0 -20.609375l3.1875 0l0 20.609375l-3.1875 0zm23.628876 0l-7.421875 -9.25l-3.421875 3.359375l0 5.890625l-3.1875 0l0 -28.453125l3.1875 0l0 18.8125l10.84375 -10.96875l4.046875 0l-9.125 9.34375l9.171875 11.265625l-4.09375 0zm17.062897 0.515625q-4.65625 0 -7.578125 -3.03125q-2.921875 -3.03125 -2.921875 -7.8125q0 -4.5625 2.90625 -7.671875q2.90625 -3.109375 7.25 -3.109375q4.4375 0 7.15625 3.078125q2.734375 3.0625 2.734375 7.96875l0 0.8125l-16.671875 0q0.171875 3.15625 2.28125 5.140625q2.109375 1.984375 5.140625 1.984375q3.75 0 6.359375 -2.609375l1.53125 2.09375q-3.15625 3.15625 -8.1875 3.15625zm6.390625 -12.125q0 -2.84375 -1.875 -4.84375q-1.875 -2.015625 -4.90625 -2.015625q-2.859375 0 -4.765625 2.015625q-1.890625 2.0 -1.96875 4.84375l13.515625 0zm8.327942 11.609375l0 -28.453125l3.1875 0l0 28.453125l-3.1875 0zm11.175751 -23.546875q-0.859375 0 -1.5 -0.609375q-0.640625 -0.625 -0.640625 -1.515625q0 -0.90625 0.640625 -1.546875q0.640625 -0.640625 1.5 -0.640625q0.890625 0 1.53125 0.640625q0.640625 0.640625 0.640625 1.546875q0 0.890625 -0.640625 1.515625q-0.640625 0.609375 -1.53125 0.609375zm-1.578125 23.546875l0 -20.609375l3.1875 0l0 20.609375l-3.1875 0zm23.535156 0l0 -13.5625q0 -2.3125 -1.09375 -3.5q-1.078125 -1.1875 -3.546875 -1.1875q-1.75 0 -3.390625 0.890625q-1.640625 0.890625 -2.71875 2.296875l0 15.0625l-3.1875 0l0 -28.453125l3.1875 0l0 10.84375q1.375 -1.578125 3.328125 -2.53125q1.96875 -0.96875 4.0625 -0.96875q6.5625 0 6.5625 6.5625l0 14.546875l-3.203125 0zm18.608734 0.515625q-4.4844055 0 -7.3437805 -3.046875q-2.859375 -3.0625 -2.859375 -7.796875q0 -4.765625 2.859375 -7.765625q2.859375 -3.015625 7.3437805 -3.015625q4.46875 0 7.328125 3.015625q2.859375 3.0 2.859375 7.765625q0 4.734375 -2.859375 7.796875q-2.859375 3.046875 -7.328125 3.046875zm0 -2.859375q2.984375 0 4.90625 -2.234375q1.921875 -2.25 1.921875 -5.75q0 -3.453125 -1.921875 -5.6875q-1.921875 -2.234375 -4.90625 -2.234375q-2.984375 0 -4.9375305 2.21875q-1.9375 2.203125 -1.9375 5.703125q0 3.546875 1.921875 5.765625q1.9219055 2.21875 4.9531555 2.21875zm24.399292 2.859375q-4.484375 0 -7.34375 -3.046875q-2.859375 -3.0625 -2.859375 -7.796875q0 -4.765625 2.859375 -7.765625q2.859375 -3.015625 7.34375 -3.015625q4.46875 0 7.328125 3.015625q2.859375 3.0 2.859375 7.765625q0 4.734375 -2.859375 7.796875q-2.859375 3.046875 -7.328125 3.046875zm0 -2.859375q2.984375 0 4.90625 -2.234375q1.921875 -2.25 1.921875 -5.75q0 -3.453125 -1.921875 -5.6875q-1.921875 -2.234375 -4.90625 -2.234375q-2.984375 0 -4.9375 2.21875q-1.9375 2.203125 -1.9375 5.703125q0 3.546875 1.921875 5.765625q1.921875 2.21875 4.953125 2.21875zm30.321228 2.34375l0 -3.078125q-1.140625 1.578125 -2.96875 2.59375q-1.8125 1.0 -3.984375 1.0q-4.140625 0 -6.65625 -2.9375q-2.515625 -2.953125 -2.515625 -7.859375q0 -4.953125 2.53125 -7.890625q2.546875 -2.9375 6.640625 -2.9375q2.09375 0 3.90625 0.96875q1.8125 0.953125 3.046875 2.65625l0 -10.96875l3.203125 0l0 28.453125l-3.203125 0zm-6.1875 -2.34375q1.921875 0 3.625 -0.9375q1.71875 -0.9375 2.5625 -2.3125l0 -9.328125q-0.84375 -1.375 -2.5625 -2.34375q-1.703125 -0.984375 -3.625 -0.984375q-2.984375 0 -4.796875 2.171875q-1.8125 2.171875 -1.8125 5.796875q0 3.546875 1.796875 5.75q1.796875 2.1875 4.8125 2.1875z" fill-rule="nonzero"/><path fill="#31394d" d="m698.1592 233.17712l252.48187 0l0 109.43518l-252.48187 0z" fill-rule="evenodd"/><path fill="#ffffff" d="m744.01556 303.3547l0 -28.453125l11.4375 0q4.046875 0 6.46875 2.4375q2.4375 2.421875 2.4375 6.140625q0 3.75 -2.484375 6.171875q-2.46875 2.40625 -6.421875 2.40625l-7.890625 0l0 11.296875l-3.546875 0zm11.0 -14.453125q2.5625 0 4.109375 -1.5q1.5625 -1.5 1.5625 -3.921875q0 -2.4375 -1.5625 -3.921875q-1.546875 -1.5 -4.109375 -1.5l-7.453125 0l0 10.84375l7.453125 0zm22.359497 14.96875q-4.484375 0 -7.34375 -3.046875q-2.859375 -3.0625 -2.859375 -7.796875q0 -4.765625 2.859375 -7.765625q2.859375 -3.015625 7.34375 -3.015625q4.46875 0 7.328125 3.015625q2.859375 3.0 2.859375 7.765625q0 4.734375 -2.859375 7.796875q-2.859375 3.046875 -7.328125 3.046875zm0 -2.859375q2.984375 0 4.90625 -2.234375q1.921875 -2.25 1.921875 -5.75q0 -3.453125 -1.921875 -5.6875q-1.921875 -2.234375 -4.90625 -2.234375q-2.984375 0 -4.9375 2.21875q-1.9375 2.203125 -1.9375 5.703125q0 3.546875 1.921875 5.765625q1.921875 2.21875 4.953125 2.21875zm21.914978 2.859375q-5.234375 0 -8.3125 -3.25l1.671875 -2.296875q1.015625 1.1875 2.828125 2.0625q1.8125 0.875 3.953125 0.875q2.390625 0 3.625 -1.0q1.234375 -1.0 1.234375 -2.53125q0 -1.375 -1.34375 -2.15625q-1.34375 -0.796875 -5.015625 -1.640625q-3.109375 -0.640625 -4.75 -2.03125q-1.640625 -1.390625 -1.640625 -3.734375q0 -2.59375 2.078125 -4.25q2.09375 -1.671875 5.59375 -1.671875q4.65625 0 7.640625 2.984375l-1.5 2.21875q-0.9375 -1.109375 -2.546875 -1.859375q-1.59375 -0.75 -3.59375 -0.75q-2.140625 0 -3.359375 0.9375q-1.203125 0.9375 -1.203125 2.3125q0 1.234375 1.359375 1.96875q1.375 0.71875 5.03125 1.484375q3.125 0.71875 4.734375 2.203125q1.625 1.46875 1.625 3.890625q0 2.859375 -2.21875 4.546875q-2.21875 1.6875 -5.890625 1.6875zm18.522583 0q-4.5625 0 -4.5625 -4.828125l0 -13.46875l-3.421875 0l0 -2.828125l3.421875 0l0 -5.625l3.1875 0l0 5.625l4.1875 0l0 2.828125l-4.1875 0l0 12.796875q0 1.140625 0.515625 1.890625q0.515625 0.75 1.578125 0.75q1.328125 0 2.171875 -0.859375l0.953125 2.390625q-1.328125 1.328125 -3.84375 1.328125zm16.634705 0q-4.65625 0 -7.578125 -3.03125q-2.921875 -3.03125 -2.921875 -7.8125q0 -4.5625 2.90625 -7.671875q2.90625 -3.109375 7.25 -3.109375q4.4375 0 7.15625 3.078125q2.734375 3.0625 2.734375 7.96875l0 0.8125l-16.671875 0q0.171875 3.15625 2.28125 5.140625q2.109375 1.984375 5.140625 1.984375q3.75 0 6.359375 -2.609375l1.53125 2.09375q-3.15625 3.15625 -8.1875 3.15625zm6.390625 -12.125q0 -2.84375 -1.875 -4.84375q-1.875 -2.015625 -4.90625 -2.015625q-2.859375 0 -4.765625 2.015625q-1.890625 2.0 -1.96875 4.84375l13.515625 0zm8.327942 11.609375l0 -20.609375l3.1875 0l0 3.328125q2.859375 -3.75 6.875 -3.75l0 3.28125l-1.28125 -0.125q-1.453125 0 -3.203125 1.046875q-1.75 1.046875 -2.390625 2.234375l0 14.59375l-3.1875 0zm15.654663 -23.546875q-0.859375 0 -1.5 -0.609375q-0.640625 -0.625 -0.640625 -1.515625q0 -0.90625 0.640625 -1.546875q0.640625 -0.640625 1.5 -0.640625q0.890625 0 1.53125 0.640625q0.640625 0.640625 0.640625 1.546875q0 0.890625 -0.640625 1.515625q-0.640625 0.609375 -1.53125 0.609375zm-1.578125 23.546875l0 -20.609375l3.1875 0l0 20.609375l-3.1875 0zm18.597595 0.515625q-4.484375 0 -7.34375 -3.046875q-2.859375 -3.0625 -2.859375 -7.796875q0 -4.765625 2.859375 -7.765625q2.859375 -3.015625 7.34375 -3.015625q4.46875 0 7.328125 3.015625q2.859375 3.0 2.859375 7.765625q0 4.734375 -2.859375 7.796875q-2.859375 3.046875 -7.328125 3.046875zm0 -2.859375q2.984375 0 4.90625 -2.234375q1.921875 -2.25 1.921875 -5.75q0 -3.453125 -1.921875 -5.6875q-1.921875 -2.234375 -4.90625 -2.234375q-2.984375 0 -4.9375 2.21875q-1.9375 2.203125 -1.9375 5.703125q0 3.546875 1.921875 5.765625q1.921875 2.21875 4.953125 2.21875zm15.399353 2.34375l0 -20.609375l3.1875 0l0 3.328125q2.859375 -3.75 6.875 -3.75l0 3.28125l-1.28125 -0.125q-1.453125 0 -3.203125 1.046875q-1.75 1.046875 -2.390625 2.234375l0 14.59375l-3.1875 0z" fill-rule="nonzero"/><path fill="#31394d" d="m353.75906 42.35736l252.4819 0l0 109.435196l-252.4819 0z" fill-rule="evenodd"/><path fill="#ffffff" d="m439.6482 112.53496l0 -28.453125l9.71875 0q6.484375 0 10.53125 4.03125q4.0625 4.03125 4.0625 10.21875q0 6.21875 -4.078125 10.21875q-4.0625 3.984375 -10.515625 3.984375l-9.71875 0zm9.71875 -3.15625q4.875 0 7.890625 -3.046875q3.03125 -3.046875 3.03125 -8.0q0 -4.953125 -2.984375 -8.015625q-2.984375 -3.078125 -7.9375 -3.078125l-6.171875 0l0 22.140625l6.171875 0zm32.890564 3.15625l0 -2.34375q-2.59375 2.859375 -6.828125 2.859375q-3.109375 0 -5.15625 -1.953125q-2.046875 -1.96875 -2.046875 -4.875q0 -2.984375 2.015625 -4.875q2.03125 -1.90625 5.1875 -1.90625q4.4375 0 6.828125 2.8125l0 -3.703125q0 -2.09375 -1.46875 -3.21875q-1.46875 -1.140625 -3.734375 -1.140625q-3.625 0 -6.3125 2.859375l-1.484375 -2.21875q3.28125 -3.40625 8.21875 -3.40625q3.796875 0 5.890625 1.828125q2.09375 1.828125 2.09375 5.125l0 14.15625l-3.203125 0zm-5.671875 -1.796875q3.796875 0 5.671875 -2.546875l0 -3.890625q-1.875 -2.5625 -5.671875 -2.5625q-2.265625 0 -3.671875 1.265625q-1.40625 1.25 -1.40625 3.265625q0 1.953125 1.40625 3.21875q1.40625 1.25 3.671875 1.25zm20.479828 2.3125q-4.5625 0 -4.5625 -4.828125l0 -13.46875l-3.421875 0l0 -2.828125l3.421875 0l0 -5.625l3.1875 0l0 5.625l4.1875 0l0 2.828125l-4.1875 0l0 12.796875q0 1.140625 0.515625 1.890625q0.515625 0.75 1.578125 0.75q1.328125 0 2.171875 -0.859375l0.953125 2.390625q-1.328125 1.328125 -3.84375 1.328125zm20.2128 -0.515625l0 -2.34375q-2.59375 2.859375 -6.828125 2.859375q-3.109375 0 -5.15625 -1.953125q-2.046875 -1.96875 -2.046875 -4.875q0 -2.984375 2.015625 -4.875q2.03125 -1.90625 5.1875 -1.90625q4.4375 0 6.828125 2.8125l0 -3.703125q0 -2.09375 -1.46875 -3.21875q-1.46875 -1.140625 -3.734375 -1.140625q-3.625 0 -6.3125 2.859375l-1.484375 -2.21875q3.28125 -3.40625 8.21875 -3.40625q3.796875 0 5.890625 1.828125q2.09375 1.828125 2.09375 5.125l0 14.15625l-3.203125 0zm-5.671875 -1.796875q3.796875 0 5.671875 -2.546875l0 -3.890625q-1.875 -2.5625 -5.671875 -2.5625q-2.265625 0 -3.671875 1.265625q-1.40625 1.25 -1.40625 3.265625q0 1.953125 1.40625 3.21875q1.40625 1.25 3.671875 1.25z" fill-rule="nonzero"/><path fill="#000000" fill-opacity="0.0" d="m261.84085 287.86636l91.90549 0" fill-rule="evenodd"/><path stroke="#009384" stroke-width="4.0" stroke-linejoin="round" stroke-linecap="butt" d="m261.84085 287.86636l67.90549 0" fill-rule="evenodd"/><path fill="#009384" stroke="#009384" stroke-width="4.0" stroke-linecap="butt" d="m329.74634 294.4733l18.152405 -6.6069336l-18.152405 -6.6069336z" fill-rule="evenodd"/><path fill="#000000" fill-opacity="0.0" d="m606.24097 287.86603l91.90552 0.03149414" fill-rule="evenodd"/><path stroke="#009384" stroke-width="4.0" stroke-linejoin="round" stroke-linecap="butt" d="m606.24097 287.86603l67.90552 0.023254395" fill-rule="evenodd"/><path fill="#009384" stroke="#009384" stroke-width="4.0" stroke-linecap="butt" d="m674.1442 294.49622l18.154663 -6.600708l-18.150146 -6.613159z" fill-rule="evenodd"/><path fill="#000000" fill-opacity="0.0" d="m480.0 151.79256l0 81.354324" fill-rule="evenodd"/><path stroke="#009384" stroke-width="4.0" stroke-linejoin="round" stroke-linecap="butt" d="m480.0 151.79256l0 57.354324" fill-rule="evenodd"/><path fill="#009384" stroke="#009384" stroke-width="4.0" stroke-linecap="butt" d="m473.39307 209.14688l6.6069336 18.15239l6.6069336 -18.15239z" fill-rule="evenodd"/></g></svg>