<svg version="1.1" viewBox="0.0 0.0 960.0 540.0" fill="none" stroke="none" stroke-linecap="square" stroke-miterlimit="10" xmlns:xlink="http://www.w3.org/1999/xlink" xmlns="http://www.w3.org/2000/svg"><clipPath id="g5b97530389_0_55.0"><path d="m0 0l960.0 0l0 540.0l-960.0 0l0 -540.0z" clip-rule="nonzero"/></clipPath><g clip-path="url(#g5b97530389_0_55.0)"><path fill="#31394d" d="m0 0l960.0 0l0 540.0l-960.0 0z" fill-rule="evenodd"/><path fill="#ede3da" d="m76.326775 312.59448l170.07874 0l0 75.590546l-170.07874 0z" fill-rule="evenodd"/><path fill="#31394d" d="m134.43484 342.586l-1.875 -0.28125l0 -1.203125l3.203125 0q0.859375 0 1.703125 -0.078125q1.296875 -0.09375 2.4375 -0.09375q3.484375 0.03125 4.921875 1.296875q1.4375 1.265625 1.4375 3.84375q0 1.921875 -0.890625 3.34375q-0.875 1.40625 -2.453125 2.15625q-1.5625 0.734375 -3.609375 0.734375q-0.703125 0 -1.421875 -0.03125q-0.71875 -0.046875 -0.875 -0.0625l0 5.28125l3.28125 0.265625l0 1.171875l-7.84375 0l0 -1.171875l1.984375 -0.25l0 -14.921875zm2.578125 8.296875q0.671875 0.125 2.296875 0.125q1.890625 0 3.078125 -1.140625q1.1875 -1.15625 1.1875 -3.78125q0 -2.0625 -1.03125 -2.953125q-1.03125 -0.90625 -3.203125 -0.90625q-0.78125 0 -1.640625 0.09375q-0.53125 0.046875 -0.6875 0.046875l0 8.515625zm10.982208 6.875l1.796875 -0.140625l0 -10.15625l-1.71875 -0.4375l0 -1.296875l3.3125 -0.421875l0.046875 0l0.53125 0.421875l0 0.4375l-0.078125 1.875l0.078125 0q0.234375 -0.40625 0.859375 -1.046875q0.625 -0.65625 1.609375 -1.203125q0.984375 -0.546875 2.140625 -0.546875q0.46875 0 0.78125 0.125l0 2.6875q-0.171875 -0.109375 -0.546875 -0.21875q-0.359375 -0.109375 -0.8125 -0.109375q-2.0 0 -3.703125 1.21875l0 8.640625l3.046875 0.1875l0 1.15625l-7.34375 0l0 -1.171875zm13.773224 -14.546875q-0.765625 0 -1.15625 -0.421875q-0.375 -0.4375 -0.375 -1.109375q0 -0.78125 0.46875 -1.28125q0.46875 -0.5 1.28125 -0.5q0.8125 0 1.203125 0.4375q0.390625 0.421875 0.390625 1.09375q0 0.8125 -0.46875 1.296875q-0.46875 0.484375 -1.3125 0.484375l-0.03125 0zm-0.953125 4.25l-1.828125 -0.4375l0 -1.265625l3.71875 -0.453125l0.046875 0l0.5625 0.421875l0 11.828125l1.921875 0.203125l0 1.171875l-6.359375 0l0 -1.171875l1.9375 -0.21875l0 -10.078125zm6.116974 4.765625q0 -2.15625 0.890625 -3.734375q0.890625 -1.59375 2.34375 -2.421875q1.453125 -0.828125 3.109375 -0.828125q3.015625 0 4.53125 1.921875q1.53125 1.921875 1.53125 5.046875q0 2.1875 -0.890625 3.765625q-0.875 1.578125 -2.328125 2.40625q-1.453125 0.8125 -3.109375 0.8125q-3.03125 0 -4.5625 -1.921875q-1.515625 -1.921875 -1.515625 -5.046875zm6.21875 5.59375q1.65625 0 2.546875 -1.359375q0.890625 -1.375 0.890625 -4.0625q0 -2.65625 -0.828125 -4.21875q-0.8125 -1.5625 -2.609375 -1.5625q-1.65625 0 -2.5625 1.375q-0.890625 1.359375 -0.890625 4.046875q0 2.671875 0.828125 4.234375q0.84375 1.546875 2.625 1.546875zm8.42009 -0.0625l1.796875 -0.140625l0 -10.15625l-1.71875 -0.4375l0 -1.296875l3.3125 -0.421875l0.046875 0l0.53125 0.421875l0 0.4375l-0.078125 1.875l0.078125 0q0.234375 -0.40625 0.859375 -1.046875q0.625 -0.65625 1.609375 -1.203125q0.984375 -0.546875 2.140625 -0.546875q0.46875 0 0.78125 0.125l0 2.6875q-0.171875 -0.109375 -0.546875 -0.21875q-0.359375 -0.109375 -0.8125 -0.109375q-2.0 0 -3.703125 1.21875l0 8.640625l3.046875 0.1875l0 1.15625l-7.34375 0l0 -1.171875z" fill-rule="nonzero"/><path fill="#ede3da" d="m394.96063 312.59448l170.07874 0l0 75.590546l-170.07874 0z" fill-rule="evenodd"/><path fill="#31394d" d="m419.8648 342.586l-1.9375 -0.28125l0 -1.203125l6.890625 0l0 1.203125l-2.375 0.28125l0 14.921875l6.1875 -0.203125l1.40625 -4.03125l1.46875 0.203125l-0.84375 5.453125l-12.78125 0l0 -1.171875l1.984375 -0.25l0 -14.921875zm15.981567 0.625q-0.765625 0 -1.15625 -0.421875q-0.375 -0.4375 -0.375 -1.109375q0 -0.78125 0.46875 -1.28125q0.46875 -0.5 1.28125 -0.5q0.8125 0 1.203125 0.4375q0.390625 0.421875 0.390625 1.09375q0 0.8125 -0.46875 1.296875q-0.46875 0.484375 -1.3125 0.484375l-0.03125 0zm-0.953125 4.25l-1.828125 -0.4375l0 -1.265625l3.71875 -0.453125l0.046875 0l0.5625 0.421875l0 11.828125l1.921875 0.203125l0 1.171875l-6.359375 0l0 -1.171875l1.9375 -0.21875l0 -10.078125zm7.398224 -6.4375l-1.875 -0.265625l0 -1.03125l3.8125 -0.453125l0.015625 0l0.53125 0.359375l0 11.734375l-0.046875 1.421875l5.546875 -5.734375l-1.796875 -0.34375l0 -1.09375l5.8125 0l0 1.09375l-1.90625 0.34375l-3.53125 3.421875l4.5625 7.078125l1.484375 0.203125l0 1.171875l-5.828125 0l0 -1.171875l1.515625 -0.21875l-3.390625 -5.5625l-2.46875 2.4375l0.046875 1.234375l0 1.890625l1.703125 0.21875l0 1.171875l-5.703125 0l0 -1.171875l1.515625 -0.21875l0 -16.515625zm19.024963 18.171875q-2.90625 0 -4.4375 -1.890625q-1.515625 -1.90625 -1.515625 -5.078125q0 -2.078125 0.78125 -3.65625q0.796875 -1.59375 2.21875 -2.453125q1.4375 -0.875 3.265625 -0.875q2.234375 0 3.46875 1.25q1.234375 1.234375 1.3125 3.53125q0 1.46875 -0.171875 2.234375l-8.265625 0q0.0625 2.375 1.109375 3.828125q1.0625 1.453125 3.0 1.453125q0.96875 0 2.0 -0.34375q1.046875 -0.359375 1.625 -0.828125l0.453125 1.046875q-0.6875 0.71875 -2.0625 1.25q-1.359375 0.53125 -2.78125 0.53125zm2.453125 -8.203125q0.0625 -0.515625 0.0625 -1.03125q-0.015625 -1.5625 -0.65625 -2.46875q-0.640625 -0.90625 -2.0 -0.90625q-1.390625 0 -2.21875 1.015625q-0.828125 1.015625 -0.953125 3.390625l5.765625 0zm6.446594 -9.96875l-1.9375 -0.265625l0 -1.03125l3.859375 -0.453125l0.046875 0l0.53125 0.359375l0 17.921875l2.046875 0.203125l0 1.171875l-6.484375 0l0 -1.171875l1.9375 -0.21875l0 -16.515625zm9.070099 2.1875q-0.765625 0 -1.15625 -0.421875q-0.375 -0.4375 -0.375 -1.109375q0 -0.78125 0.46875 -1.28125q0.46875 -0.5 1.28125 -0.5q0.8125 0 1.203125 0.4375q0.390625 0.421875 0.390625 1.09375q0 0.8125 -0.46875 1.296875q-0.46875 0.484375 -1.3125 0.484375l-0.03125 0zm-0.953125 4.25l-1.828125 -0.4375l0 -1.265625l3.71875 -0.453125l0.046875 0l0.5625 0.421875l0 11.828125l1.921875 0.203125l0 1.171875l-6.359375 0l0 -1.171875l1.9375 -0.21875l0 -10.078125zm7.413849 -6.4375l-2.015625 -0.265625l0 -1.03125l3.90625 -0.453125l0.046875 0l0.53125 0.359375l0 5.5625l-0.09375 2.046875q0.765625 -0.703125 2.109375 -1.3125q1.34375 -0.625 2.71875 -0.625q1.515625 0 2.34375 0.578125q0.84375 0.5625 1.171875 1.75q0.34375 1.1875 0.34375 3.203125l0 6.703125l1.6875 0.21875l0 1.171875l-5.734375 0l0 -1.171875l1.546875 -0.21875l0 -6.71875q0 -1.421875 -0.1875 -2.21875q-0.1875 -0.8125 -0.71875 -1.203125q-0.53125 -0.390625 -1.578125 -0.390625q-0.875 0 -1.859375 0.4375q-0.984375 0.421875 -1.71875 1.0l0 9.09375l1.65625 0.21875l0 1.171875l-5.59375 0l0 -1.171875l1.4375 -0.203125l0 -16.53125zm14.5190735 11.203125q0 -2.15625 0.890625 -3.734375q0.890625 -1.59375 2.34375 -2.421875q1.453125 -0.828125 3.109375 -0.828125q3.015625 0 4.53125 1.921875q1.53125 1.921875 1.53125 5.046875q0 2.1875 -0.890625 3.765625q-0.875 1.578125 -2.328125 2.40625q-1.453125 0.8125 -3.109375 0.8125q-3.03125 0 -4.5625 -1.921875q-1.515625 -1.921875 -1.515625 -5.046875zm6.21875 5.59375q1.65625 0 2.546875 -1.359375q0.890625 -1.375 0.890625 -4.0625q0 -2.65625 -0.828125 -4.21875q-0.8125 -1.5625 -2.609375 -1.5625q-1.65625 0 -2.5625 1.375q-0.890625 1.359375 -0.890625 4.046875q0 2.671875 0.828125 4.234375q0.84375 1.546875 2.625 1.546875zm8.37323 -5.59375q0 -2.15625 0.890625 -3.734375q0.890625 -1.59375 2.34375 -2.421875q1.453125 -0.828125 3.109375 -0.828125q3.015625 0 4.53125 1.921875q1.53125 1.921875 1.53125 5.046875q0 2.1875 -0.890625 3.765625q-0.875 1.578125 -2.328125 2.40625q-1.453125 0.8125 -3.109375 0.8125q-3.03125 0 -4.5625 -1.921875q-1.515625 -1.921875 -1.515625 -5.046875zm6.21875 5.59375q1.65625 0 2.546875 -1.359375q0.890625 -1.375 0.890625 -4.0625q0 -2.65625 -0.828125 -4.21875q-0.8125 -1.5625 -2.609375 -1.5625q-1.65625 0 -2.5625 1.375q-0.890625 1.359375 -0.890625 4.046875q0 2.671875 0.828125 4.234375q0.84375 1.546875 2.625 1.546875zm13.560669 1.375q-1.4375 0 -2.640625 -0.71875q-1.203125 -0.71875 -1.90625 -2.203125q-0.703125 -1.5 -0.703125 -3.6875q0 -2.03125 0.828125 -3.703125q0.84375 -1.6875 2.40625 -2.65625q1.578125 -0.984375 3.71875 -0.984375q1.21875 0 2.234375 0.265625l0 -4.484375l-2.453125 -0.28125l0 -1.03125l4.328125 -0.4375l0.0625 0l0.53125 0.390625l0 18.046875l1.390625 0l0 1.09375q-0.765625 0.171875 -1.328125 0.265625q-0.5625 0.09375 -1.1875 0.09375q-0.625 0 -0.890625 -0.21875q-0.265625 -0.203125 -0.265625 -0.90625l0 -0.765625q-0.671875 0.8125 -1.765625 1.375q-1.09375 0.546875 -2.359375 0.546875zm0.953125 -1.703125q0.9375 0 1.75 -0.421875q0.828125 -0.421875 1.234375 -0.96875l0 -8.78125q-0.1875 -0.296875 -0.90625 -0.515625q-0.703125 -0.234375 -1.5 -0.234375q-1.875 0 -2.984375 1.4375q-1.109375 1.421875 -1.109375 4.390625q0 2.59375 0.96875 3.84375q0.984375 1.25 2.546875 1.25z" fill-rule="nonzero"/><path fill="#ede3da" d="m713.5945 312.59448l170.07874 0l0 75.590546l-170.07874 0z" fill-rule="evenodd"/><path fill="#31394d" d="m746.93463 342.586l-1.875 -0.28125l0 -1.203125l3.203125 0q0.859375 0 1.703125 -0.078125q1.296875 -0.09375 2.4375 -0.09375q3.484375 0.03125 4.921875 1.296875q1.4375 1.265625 1.4375 3.84375q0 1.921875 -0.890625 3.34375q-0.875 1.40625 -2.453125 2.15625q-1.5625 0.734375 -3.609375 0.734375q-0.703125 0 -1.421875 -0.03125q-0.71875 -0.046875 -0.875 -0.0625l0 5.28125l3.28125 0.265625l0 1.171875l-7.84375 0l0 -1.171875l1.984375 -0.25l0 -14.921875zm2.578125 8.296875q0.671875 0.125 2.296875 0.125q1.890625 0 3.078125 -1.140625q1.1875 -1.15625 1.1875 -3.78125q0 -2.0625 -1.03125 -2.953125q-1.03125 -0.90625 -3.203125 -0.90625q-0.78125 0 -1.640625 0.09375q-0.53125 0.046875 -0.6875 0.046875l0 8.515625zm10.935303 1.34375q0 -2.15625 0.890625 -3.734375q0.890625 -1.59375 2.34375 -2.421875q1.453125 -0.828125 3.109375 -0.828125q3.015625 0 4.53125 1.921875q1.53125 1.921875 1.53125 5.046875q0 2.1875 -0.890625 3.765625q-0.875 1.578125 -2.328125 2.40625q-1.453125 0.8125 -3.109375 0.8125q-3.03125 0 -4.5625 -1.921875q-1.515625 -1.921875 -1.515625 -5.046875zm6.21875 5.59375q1.65625 0 2.546875 -1.359375q0.890625 -1.375 0.890625 -4.0625q0 -2.65625 -0.828125 -4.21875q-0.8125 -1.5625 -2.609375 -1.5625q-1.65625 0 -2.5625 1.375q-0.890625 1.359375 -0.890625 4.046875q0 2.671875 0.828125 4.234375q0.84375 1.546875 2.625 1.546875zm10.607605 -0.8125q0.234375 0.359375 1.015625 0.65625q0.78125 0.28125 1.640625 0.28125q1.375 0 2.015625 -0.53125q0.65625 -0.53125 0.65625 -1.453125q0 -0.65625 -0.40625 -1.125q-0.40625 -0.484375 -1.140625 -0.859375q-0.734375 -0.375 -2.109375 -0.90625q-1.84375 -0.6875 -2.703125 -1.65625q-0.84375 -0.984375 -0.84375 -2.5625q0 -1.0625 0.640625 -1.84375q0.640625 -0.796875 1.75 -1.234375q1.109375 -0.453125 2.484375 -0.453125q1.109375 0 1.9375 0.171875q0.828125 0.171875 1.328125 0.34375q0.5 0.15625 0.671875 0.203125l0 2.984375l-1.46875 0l-0.484375 -1.78125q-0.140625 -0.28125 -0.765625 -0.484375q-0.625 -0.21875 -1.390625 -0.21875q-1.078125 0 -1.734375 0.484375q-0.65625 0.484375 -0.65625 1.296875q0 0.71875 0.34375 1.1875q0.34375 0.46875 0.875 0.765625q0.53125 0.28125 1.4375 0.671875l0.484375 0.1875q1.34375 0.53125 2.171875 1.015625q0.84375 0.46875 1.40625 1.25q0.578125 0.78125 0.578125 1.90625q0 1.78125 -1.390625 2.84375q-1.375 1.046875 -3.78125 1.046875q-1.171875 0 -2.453125 -0.328125q-1.28125 -0.328125 -2.109375 -0.65625l0 -3.078125l1.5625 0l0.4375 1.875zm13.994995 2.15625q-1.375 0 -2.046875 -0.625q-0.671875 -0.625 -0.671875 -2.125l0 -9.21875l-1.71875 0l0 -1.078125q0.109375 -0.03125 0.65625 -0.171875q0.5625 -0.140625 0.75 -0.265625q0.390625 -0.21875 0.609375 -0.859375q0.1875 -0.453125 0.453125 -1.453125q0.265625 -1.015625 0.3125 -1.21875l1.40625 0l0.046875 3.46875l4.015625 0l0 1.578125l-4.015625 0l0 7.359375q0 1.375 0.078125 1.9375q0.09375 0.546875 0.375 0.71875q0.28125 0.15625 0.953125 0.15625q0.640625 0 1.421875 -0.15625q0.78125 -0.171875 1.21875 -0.375l0.359375 1.078125q-0.578125 0.4375 -1.875 0.84375q-1.28125 0.40625 -2.328125 0.40625zm11.564819 0.03125q-2.90625 0 -4.4375 -1.890625q-1.515625 -1.90625 -1.515625 -5.078125q0 -2.078125 0.78125 -3.65625q0.796875 -1.59375 2.21875 -2.453125q1.4375 -0.875 3.265625 -0.875q2.234375 0 3.46875 1.25q1.234375 1.234375 1.3125 3.53125q0 1.46875 -0.171875 2.234375l-8.265625 0q0.0625 2.375 1.109375 3.828125q1.0625 1.453125 3.0 1.453125q0.96875 0 2.0 -0.34375q1.046875 -0.359375 1.625 -0.828125l0.453125 1.046875q-0.6875 0.71875 -2.0625 1.25q-1.359375 0.53125 -2.78125 0.53125zm2.453125 -8.203125q0.0625 -0.515625 0.0625 -1.03125q-0.015625 -1.5625 -0.65625 -2.46875q-0.640625 -0.90625 -2.0 -0.90625q-1.390625 0 -2.21875 1.015625q-0.828125 1.015625 -0.953125 3.390625l5.765625 0zm4.743469 6.765625l1.796875 -0.140625l0 -10.15625l-1.71875 -0.4375l0 -1.296875l3.3125 -0.421875l0.046875 0l0.53125 0.421875l0 0.4375l-0.078125 1.875l0.078125 0q0.234375 -0.40625 0.859375 -1.046875q0.625 -0.65625 1.609375 -1.203125q0.984375 -0.546875 2.140625 -0.546875q0.46875 0 0.78125 0.125l0 2.6875q-0.171875 -0.109375 -0.546875 -0.21875q-0.359375 -0.109375 -0.8125 -0.109375q-2.0 0 -3.703125 1.21875l0 8.640625l3.046875 0.1875l0 1.15625l-7.34375 0l0 -1.171875zm13.773254 -14.546875q-0.765625 0 -1.15625 -0.421875q-0.375 -0.4375 -0.375 -1.109375q0 -0.78125 0.46875 -1.28125q0.46875 -0.5 1.28125 -0.5q0.8125 0 1.203125 0.4375q0.390625 0.421875 0.390625 1.09375q0 0.8125 -0.46875 1.296875q-0.46875 0.484375 -1.3125 0.484375l-0.03125 0zm-0.953125 4.25l-1.828125 -0.4375l0 -1.265625l3.71875 -0.453125l0.046875 0l0.5625 0.421875l0 11.828125l1.921875 0.203125l0 1.171875l-6.359375 0l0 -1.171875l1.9375 -0.21875l0 -10.078125zm6.1169434 4.765625q0 -2.15625 0.890625 -3.734375q0.890625 -1.59375 2.34375 -2.421875q1.453125 -0.828125 3.109375 -0.828125q3.015625 0 4.53125 1.921875q1.53125 1.921875 1.53125 5.046875q0 2.1875 -0.890625 3.765625q-0.875 1.578125 -2.328125 2.40625q-1.453125 0.8125 -3.109375 0.8125q-3.03125 0 -4.5625 -1.921875q-1.515625 -1.921875 -1.515625 -5.046875zm6.21875 5.59375q1.65625 0 2.546875 -1.359375q0.890625 -1.375 0.890625 -4.0625q0 -2.65625 -0.828125 -4.21875q-0.8125 -1.5625 -2.609375 -1.5625q-1.65625 0 -2.5625 1.375q-0.890625 1.359375 -0.890625 4.046875q0 2.671875 0.828125 4.234375q0.84375 1.546875 2.625 1.546875zm8.420105 -0.0625l1.796875 -0.140625l0 -10.15625l-1.71875 -0.4375l0 -1.296875l3.3125 -0.421875l0.046875 0l0.53125 0.421875l0 0.4375l-0.078125 1.875l0.078125 0q0.234375 -0.40625 0.859375 -1.046875q0.625 -0.65625 1.609375 -1.203125q0.984375 -0.546875 2.140625 -0.546875q0.46875 0 0.78125 0.125l0 2.6875q-0.171875 -0.109375 -0.546875 -0.21875q-0.359375 -0.109375 -0.8125 -0.109375q-2.0 0 -3.703125 1.21875l0 8.640625l3.046875 0.1875l0 1.15625l-7.34375 0l0 -1.171875z" fill-rule="nonzero"/><path fill="#ede3da" d="m394.37402 151.81496l170.07874 0l0 75.59056l-170.07874 0z" fill-rule="evenodd"/><path fill="#31394d" d="m455.0632 181.80649l-1.875 -0.28125l0 -1.203125l3.15625 0q0.734375 0 2.125 -0.09375q1.390625 -0.109375 2.09375 -0.109375q4.46875 0 6.640625 2.25q2.171875 2.25 2.171875 6.296875q0 2.84375 -1.125 5.046875q-1.109375 2.1875 -3.125 3.40625q-2.015625 1.21875 -4.640625 1.21875q-0.578125 0 -1.96875 -0.09375q-1.4375 -0.09375 -2.15625 -0.09375l-3.28125 0l0 -1.171875l1.984375 -0.25l0 -14.921875zm2.546875 15.0q0.84375 0.1875 2.15625 0.1875l0.71875 0q1.796875 -0.015625 3.171875 -0.90625q1.390625 -0.890625 2.15625 -2.65625q0.765625 -1.765625 0.765625 -4.28125q0 -3.796875 -1.640625 -5.765625q-1.640625 -1.96875 -4.953125 -1.96875q-0.703125 0 -1.65625 0.109375q-0.40625 0.0625 -0.71875 0.0625l0 15.21875zm13.629456 -2.25q0 -2.265625 2.25 -3.328125q2.265625 -1.0625 5.71875 -1.140625l0 -0.671875q0 -1.125 -0.25 -1.765625q-0.234375 -0.65625 -0.828125 -0.953125q-0.578125 -0.3125 -1.65625 -0.3125q-1.21875 0 -2.203125 0.359375q-0.96875 0.34375 -1.921875 0.84375l-0.609375 -1.25q0.3125 -0.265625 1.15625 -0.6875q0.84375 -0.4375 1.9375 -0.765625q1.109375 -0.34375 2.21875 -0.34375q1.703125 0 2.6875 0.46875q1.0 0.46875 1.4375 1.5q0.4375 1.03125 0.4375 2.765625l0 7.703125l1.40625 0l0 1.046875q-0.46875 0.125 -1.203125 0.234375q-0.734375 0.125 -1.28125 0.125q-0.671875 0 -0.921875 -0.203125q-0.234375 -0.203125 -0.234375 -0.890625l0 -0.796875q-0.71875 0.71875 -1.765625 1.328125q-1.046875 0.59375 -2.359375 0.59375q-1.734375 0 -2.875 -1.0q-1.140625 -1.0 -1.140625 -2.859375zm5.046875 2.21875q0.625 0 1.4375 -0.375q0.8125 -0.390625 1.484375 -0.90625l0 -4.140625q-2.609375 0 -3.953125 0.8125q-1.328125 0.796875 -1.328125 2.09375q0 1.296875 0.640625 1.90625q0.640625 0.609375 1.71875 0.609375zm12.526459 1.609375q-1.375 0 -2.046875 -0.625q-0.671875 -0.625 -0.671875 -2.125l0 -9.21875l-1.71875 0l0 -1.078125q0.109375 -0.03125 0.65625 -0.171875q0.5625 -0.140625 0.75 -0.265625q0.390625 -0.21875 0.609375 -0.859375q0.1875 -0.453125 0.453125 -1.453125q0.265625 -1.015625 0.3125 -1.21875l1.40625 0l0.046875 3.46875l4.015625 0l0 1.578125l-4.015625 0l0 7.359375q0 1.375 0.078125 1.9375q0.09375 0.546875 0.375 0.71875q0.28125 0.15625 0.953125 0.15625q0.640625 0 1.421875 -0.15625q0.78125 -0.171875 1.21875 -0.375l0.359375 1.078125q-0.578125 0.4375 -1.875 0.84375q-1.28125 0.40625 -2.328125 0.40625zm5.6586 -3.828125q0 -2.265625 2.25 -3.328125q2.265625 -1.0625 5.71875 -1.140625l0 -0.671875q0 -1.125 -0.25 -1.765625q-0.234375 -0.65625 -0.828125 -0.953125q-0.578125 -0.3125 -1.65625 -0.3125q-1.21875 0 -2.203125 0.359375q-0.96875 0.34375 -1.921875 0.84375l-0.609375 -1.25q0.3125 -0.265625 1.15625 -0.6875q0.84375 -0.4375 1.9375 -0.765625q1.109375 -0.34375 2.21875 -0.34375q1.703125 0 2.6875 0.46875q1.0 0.46875 1.4375 1.5q0.4375 1.03125 0.4375 2.765625l0 7.703125l1.40625 0l0 1.046875q-0.46875 0.125 -1.203125 0.234375q-0.734375 0.125 -1.28125 0.125q-0.671875 0 -0.921875 -0.203125q-0.234375 -0.203125 -0.234375 -0.890625l0 -0.796875q-0.71875 0.71875 -1.765625 1.328125q-1.046875 0.59375 -2.359375 0.59375q-1.734375 0 -2.875 -1.0q-1.140625 -1.0 -1.140625 -2.859375zm5.046875 2.21875q0.625 0 1.4375 -0.375q0.8125 -0.390625 1.484375 -0.90625l0 -4.140625q-2.609375 0 -3.953125 0.8125q-1.328125 0.796875 -1.328125 2.09375q0 1.296875 0.640625 1.90625q0.640625 0.609375 1.71875 0.609375z" fill-rule="nonzero"/><path fill="#000000" fill-opacity="0.0" d="m246.40552 350.38977l148.56693 0" fill-rule="evenodd"/><path stroke="#009384" stroke-width="4.0" stroke-linejoin="round" stroke-linecap="butt" d="m246.40552 350.38977l124.566925 0" fill-rule="evenodd"/><path fill="#009384" stroke="#009384" stroke-width="4.0" stroke-linecap="butt" d="m370.97244 356.9967l18.152374 -6.6069336l-18.152374 -6.6069336z" fill-rule="evenodd"/><path fill="#000000" fill-opacity="0.0" d="m565.03937 350.38977l148.56696 0" fill-rule="evenodd"/><path stroke="#009384" stroke-width="4.0" stroke-linejoin="round" stroke-linecap="butt" d="m565.03937 350.38977l124.566956 0" fill-rule="evenodd"/><path fill="#009384" stroke="#009384" stroke-width="4.0" stroke-linecap="butt" d="m689.6063 356.9967l18.152344 -6.6069336l-18.152344 -6.6069336z" fill-rule="evenodd"/><path fill="#000000" fill-opacity="0.0" d="m479.4134 227.40552l0.5984192 85.19684" fill-rule="evenodd"/><path stroke="#009384" stroke-width="4.0" stroke-linejoin="round" stroke-linecap="butt" d="m479.4134 227.40552l0.4298706 61.19745" fill-rule="evenodd"/><path fill="#009384" stroke="#009384" stroke-width="4.0" stroke-linecap="butt" d="m473.23648 288.64935l6.734253 18.10553l6.4792786 -18.198334z" fill-rule="evenodd"/></g></svg>