<svg version="1.1" viewBox="0.0 0.0 960.0 377.9527559055118" fill="none" stroke="none" stroke-linecap="square" stroke-miterlimit="10" xmlns:xlink="http://www.w3.org/1999/xlink" xmlns="http://www.w3.org/2000/svg"><clipPath id="p.0"><path d="m0 0l960.0 0l0 377.95276l-960.0 0l0 -377.95276z" clip-rule="nonzero"/></clipPath><g clip-path="url(#p.0)"><path fill="#ffffff" fill-opacity="0.0" d="m0 0l960.0 0l0 377.95276l-960.0 0z" fill-rule="evenodd"/><path fill="#31394d" d="m9.358952 233.14877l252.4819 0l0 109.43521l-252.4819 0z" fill-rule="evenodd"/><path fill="#ede3da" d="m87.74544 274.2795l-3.328125 -0.515625l0 -2.125l5.671875 0q1.53125 0 3.03125 -0.140625q2.296875 -0.15625 4.34375 -0.15625q6.1875 0.03125 8.75 2.296875q2.5625 2.265625 2.5625 6.828125q0 3.40625 -1.59375 5.921875q-1.578125 2.515625 -4.375 3.84375q-2.78125 1.328125 -6.40625 1.328125q-1.234375 0 -2.515625 -0.0625q-1.28125 -0.078125 -1.578125 -0.109375l0 9.375l5.84375 0.46875l0 2.09375l-13.953125 0l0 -2.09375l3.546875 -0.421875l0 -26.53125zm4.5625 14.75q1.1875 0.21875 4.09375 0.21875q3.359375 0 5.46875 -2.046875q2.125 -2.046875 2.125 -6.703125q0 -3.65625 -1.84375 -5.25q-1.828125 -1.609375 -5.703125 -1.609375q-1.375 0 -2.90625 0.171875q-0.9375 0.078125 -1.234375 0.078125l0 15.140625zm19.527618 12.203125l3.203125 -0.25l0 -18.046875l-3.078125 -0.765625l0 -2.296875l5.890625 -0.78125l0.09375 0l0.9375 0.78125l0 0.765625l-0.125 3.328125l0.125 0q0.421875 -0.734375 1.53125 -1.875q1.109375 -1.15625 2.859375 -2.109375q1.75 -0.96875 3.796875 -0.96875q0.859375 0 1.40625 0.21875l0 4.765625q-0.296875 -0.203125 -0.96875 -0.390625q-0.65625 -0.203125 -1.46875 -0.203125q-3.53125 0 -6.5625 2.171875l0 15.359375l5.421875 0.34375l0 2.046875l-13.0625 0l0 -2.09375zm24.489655 -25.84375q-1.359375 0 -2.046875 -0.765625q-0.6875 -0.765625 -0.6875 -1.96875q0 -1.359375 0.828125 -2.25q0.84375 -0.90625 2.296875 -0.90625q1.4375 0 2.125 0.765625q0.6875 0.765625 0.6875 1.96875q0 1.453125 -0.84375 2.3125q-0.828125 0.84375 -2.3125 0.84375l-0.046875 0zm-1.703125 7.546875l-3.25 -0.765625l0 -2.265625l6.609375 -0.8125l0.09375 0l0.984375 0.78125l0 21.015625l3.40625 0.34375l0 2.09375l-11.296875 0l0 -2.09375l3.453125 -0.375l0 -17.921875zm10.876389 8.484375q0 -3.828125 1.578125 -6.640625q1.578125 -2.828125 4.15625 -4.296875q2.578125 -1.46875 5.53125 -1.46875q5.375 0 8.078125 3.421875q2.703125 3.40625 2.703125 8.953125q0 3.875 -1.578125 6.6875q-1.578125 2.8125 -4.15625 4.265625q-2.578125 1.453125 -5.515625 1.453125q-5.375 0 -8.09375 -3.40625q-2.703125 -3.421875 -2.703125 -8.96875zm11.046875 9.9375q2.9375 0 4.515625 -2.421875q1.578125 -2.4375 1.578125 -7.21875q0 -4.734375 -1.453125 -7.5q-1.4375 -2.765625 -4.640625 -2.765625q-2.9375 0 -4.546875 2.4375q-1.59375 2.421875 -1.59375 7.1875q0 4.75 1.484375 7.515625q1.5 2.765625 4.65625 2.765625zm14.966217 -0.125l3.203125 -0.25l0 -18.046875l-3.078125 -0.765625l0 -2.296875l5.890625 -0.78125l0.09375 0l0.9375 0.78125l0 0.765625l-0.125 3.328125l0.125 0q0.421875 -0.734375 1.53125 -1.875q1.109375 -1.15625 2.859375 -2.109375q1.75 -0.96875 3.796875 -0.96875q0.859375 0 1.40625 0.21875l0 4.765625q-0.296875 -0.203125 -0.96875 -0.390625q-0.65625 -0.203125 -1.46875 -0.203125q-3.53125 0 -6.5625 2.171875l0 15.359375l5.421875 0.34375l0 2.046875l-13.0625 0l0 -2.09375z" fill-rule="nonzero"/><path fill="#31394d" d="m353.75906 233.14842l252.4819 0l0 109.435196l-252.4819 0z" fill-rule="evenodd"/><path fill="#ede3da" d="m373.1307 274.27914l-3.46875 -0.515625l0 -2.125l12.25 0l0 2.125l-4.21875 0.515625l0 26.53125l11.0 -0.390625l2.515625 -7.15625l2.609375 0.375l-1.5 9.6875l-22.734375 0l0 -2.09375l3.546875 -0.421875l0 -26.53125zm28.403381 1.109375q-1.359375 0 -2.046875 -0.765625q-0.6875 -0.765625 -0.6875 -1.96875q0 -1.359375 0.828125 -2.25q0.84375 -0.90625 2.296875 -0.90625q1.4375 0 2.125 0.765625q0.6875 0.765625 0.6875 1.96875q0 1.453125 -0.84375 2.3125q-0.828125 0.84375 -2.3125 0.84375l-0.046875 0zm-1.703125 7.546875l-3.25 -0.765625l0 -2.265625l6.609375 -0.8125l0.09375 0l0.984375 0.78125l0 21.015625l3.40625 0.34375l0 2.09375l-11.296875 0l0 -2.09375l3.453125 -0.375l0 -17.921875zm13.142029 -11.4375l-3.328125 -0.46875l0 -1.828125l6.78125 -0.8125l0.03125 0l0.9375 0.640625l0 20.859375l-0.078125 2.515625l9.859375 -10.1875l-3.203125 -0.609375l0 -1.953125l10.328125 0l0 1.953125l-3.375 0.609375l-6.265625 6.09375l8.09375 12.578125l2.65625 0.34375l0 2.09375l-10.375 0l0 -2.09375l2.6875 -0.375l-6.015625 -9.90625l-4.390625 4.359375l0.078125 2.171875l0 3.375l3.03125 0.375l0 2.09375l-10.140625 0l0 -2.09375l2.6875 -0.375l0 -29.359375zm33.81244 32.296875q-5.15625 0 -7.875 -3.359375q-2.703125 -3.375 -2.703125 -9.015625q0 -3.703125 1.40625 -6.515625q1.421875 -2.828125 3.953125 -4.359375q2.53125 -1.53125 5.78125 -1.53125q3.96875 0 6.15625 2.203125q2.203125 2.1875 2.328125 6.28125q0 2.609375 -0.296875 3.96875l-14.671875 0q0.078125 4.21875 1.953125 6.8125q1.890625 2.578125 5.34375 2.578125q1.703125 0 3.546875 -0.625q1.859375 -0.625 2.890625 -1.46875l0.8125 1.875q-1.234375 1.28125 -3.671875 2.21875q-2.4375 0.9375 -4.953125 0.9375zm4.359375 -14.59375q0.125 -0.890625 0.125 -1.828125q-0.046875 -2.765625 -1.171875 -4.359375q-1.125 -1.609375 -3.5625 -1.609375q-2.46875 0 -3.953125 1.796875q-1.46875 1.78125 -1.671875 6.0l10.234375 0zm11.470612 -17.703125l-3.453125 -0.46875l0 -1.828125l6.875 -0.8125l0.078125 0l0.9375 0.640625l0 31.859375l3.625 0.34375l0 2.09375l-11.515625 0l0 -2.09375l3.453125 -0.375l0 -29.359375zm16.126373 3.890625q-1.359375 0 -2.046875 -0.765625q-0.6875 -0.765625 -0.6875 -1.96875q0 -1.359375 0.828125 -2.25q0.84375 -0.90625 2.296875 -0.90625q1.4375 0 2.125 0.765625q0.6875305 0.765625 0.6875305 1.96875q0 1.453125 -0.8437805 2.3125q-0.828125 0.84375 -2.3125 0.84375l-0.046875 0zm-1.703125 7.546875l-3.25 -0.765625l0 -2.265625l6.609375 -0.8125l0.09375 0l0.984375 0.78125l0 21.015625l3.4062805 0.34375l0 2.09375l-11.2969055 0l0 -2.09375l3.453125 -0.375l0 -17.921875zm13.173279 -11.4375l-3.578125 -0.46875l0 -1.828125l6.953125 -0.8125l0.078125 0l0.9375 0.640625l0 9.890625l-0.15625 3.625q1.359375 -1.234375 3.75 -2.34375q2.390625 -1.109375 4.8125 -1.109375q2.6875 0 4.171875 1.03125q1.5 1.015625 2.09375 3.140625q0.609375 2.109375 0.609375 5.6875l0 11.90625l2.9843445 0.375l0 2.09375l-10.2030945 0l0 -2.09375l2.78125 -0.375l0 -11.953125q0 -2.515625 -0.34375 -3.9375q-0.34375 -1.4375 -1.28125 -2.140625q-0.9375 -0.703125 -2.8125 -0.703125q-1.53125 0 -3.28125 0.765625q-1.75 0.765625 -3.078125 1.796875l0 16.171875l2.953125 0.375l0 2.09375l-9.953125 0l0 -2.09375l2.5625 -0.34375l0 -29.390625zm25.813568 19.921875q0 -3.828125 1.578125 -6.640625q1.578125 -2.828125 4.15625 -4.296875q2.578125 -1.46875 5.53125 -1.46875q5.375 0 8.078125 3.421875q2.703125 3.40625 2.703125 8.953125q0 3.875 -1.578125 6.6875q-1.578125 2.8125 -4.15625 4.265625q-2.578125 1.453125 -5.515625 1.453125q-5.375 0 -8.09375 -3.40625q-2.703125 -3.421875 -2.703125 -8.96875zm11.046875 9.9375q2.9375 0 4.515625 -2.421875q1.578125 -2.4375 1.578125 -7.21875q0 -4.734375 -1.453125 -7.5q-1.4375 -2.765625 -4.640625 -2.765625q-2.9375 0 -4.546875 2.4375q-1.59375 2.421875 -1.59375 7.1875q0 4.75 1.484375 7.515625q1.5 2.765625 4.65625 2.765625zm14.888062 -9.9375q0 -3.828125 1.578125 -6.640625q1.578125 -2.828125 4.15625 -4.296875q2.578125 -1.46875 5.53125 -1.46875q5.375 0 8.078125 3.421875q2.703125 3.40625 2.703125 8.953125q0 3.875 -1.578125 6.6875q-1.578125 2.8125 -4.15625 4.265625q-2.578125 1.453125 -5.515625 1.453125q-5.375 0 -8.09375 -3.40625q-2.703125 -3.421875 -2.703125 -8.96875zm11.046875 9.9375q2.9375 0 4.515625 -2.421875q1.578125 -2.4375 1.578125 -7.21875q0 -4.734375 -1.453125 -7.5q-1.4375 -2.765625 -4.640625 -2.765625q-2.9375 0 -4.546875 2.4375q-1.59375 2.421875 -1.59375 7.1875q0 4.75 1.484375 7.515625q1.5 2.765625 4.65625 2.765625zm24.106873 2.4375q-2.5625 0 -4.703125 -1.28125q-2.125 -1.28125 -3.390625 -3.921875q-1.25 -2.640625 -1.25 -6.53125q0 -3.625 1.484375 -6.609375q1.5 -2.984375 4.28125 -4.703125q2.796875 -1.734375 6.59375 -1.734375q2.1875 0 3.96875 0.46875l0 -7.984375l-4.34375 -0.5l0 -1.84375l7.671875 -0.765625l0.125 0l0.9375 0.6875l0 32.078125l2.484375 0l0 1.953125q-1.375 0.296875 -2.375 0.46875q-1.0 0.171875 -2.109375 0.171875q-1.109375 0 -1.578125 -0.390625q-0.46875 -0.375 -0.46875 -1.609375l0 -1.359375q-1.1875 1.4375 -3.140625 2.421875q-1.9375 0.984375 -4.1875 0.984375zm1.703125 -3.03125q1.65625 0 3.109375 -0.734375q1.453125 -0.75 2.171875 -1.734375l0 -15.609375q-0.34375 -0.515625 -1.609375 -0.921875q-1.25 -0.40625 -2.65625 -0.40625q-3.328125 0 -5.3125 2.546875q-1.984375 2.53125 -1.984375 7.8125q0 4.609375 1.75 6.828125q1.75 2.21875 4.53125 2.21875z" fill-rule="nonzero"/><path fill="#31394d" d="m698.1592 233.17712l252.48187 0l0 109.43518l-252.48187 0z" fill-rule="evenodd"/><path fill="#ede3da" d="m732.5245 274.30783l-3.328125 -0.515625l0 -2.125l5.671875 0q1.53125 0 3.03125 -0.140625q2.296875 -0.15625 4.34375 -0.15625q6.1875 0.03125 8.75 2.296875q2.5625 2.265625 2.5625 6.828125q0 3.40625 -1.59375 5.921875q-1.578125 2.515625 -4.375 3.84375q-2.78125 1.328125 -6.40625 1.328125q-1.234375 0 -2.515625 -0.0625q-1.28125 -0.078125 -1.578125 -0.109375l0 9.375l5.84375 0.46875l0 2.09375l-13.953125 0l0 -2.09375l3.546875 -0.421875l0 -26.53125zm4.5625 14.75q1.1875 0.21875 4.09375 0.21875q3.359375 0 5.46875 -2.046875q2.125 -2.046875 2.125 -6.703125q0 -3.65625 -1.84375 -5.25q-1.828125 -1.609375 -5.703125 -1.609375q-1.375 0 -2.90625 0.171875q-0.9375 0.078125 -1.234375 0.078125l0 15.140625zm19.449463 2.390625q0 -3.828125 1.578125 -6.640625q1.578125 -2.828125 4.15625 -4.296875q2.578125 -1.46875 5.53125 -1.46875q5.375 0 8.078125 3.421875q2.703125 3.40625 2.703125 8.953125q0 3.875 -1.578125 6.6875q-1.578125 2.8125 -4.15625 4.265625q-2.578125 1.453125 -5.515625 1.453125q-5.375 0 -8.09375 -3.40625q-2.703125 -3.421875 -2.703125 -8.96875zm11.046875 9.9375q2.9375 0 4.515625 -2.421875q1.578125 -2.4375 1.578125 -7.21875q0 -4.734375 -1.453125 -7.5q-1.4375 -2.765625 -4.640625 -2.765625q-2.9375 0 -4.546875 2.4375q-1.59375 2.421875 -1.59375 7.1875q0 4.75 1.484375 7.515625q1.5 2.765625 4.65625 2.765625zm18.856873 -1.4375q0.421875 0.640625 1.796875 1.15625q1.390625 0.5 2.9375 0.5q2.421875 0 3.578125 -0.9375q1.15625 -0.9375 1.15625 -2.609375q0 -1.140625 -0.734375 -1.984375q-0.71875 -0.859375 -2.03125 -1.515625q-1.296875 -0.671875 -3.71875 -1.609375q-3.28125 -1.234375 -4.796875 -2.953125q-1.515625 -1.734375 -1.515625 -4.5625q0 -1.875 1.125 -3.28125q1.125 -1.40625 3.109375 -2.1875q1.984375 -0.796875 4.421875 -0.796875q1.96875 0 3.4375 0.296875q1.46875 0.296875 2.359375 0.609375q0.90625 0.296875 1.203125 0.375l0 5.296875l-2.609375 0l-0.84375 -3.171875q-0.265625 -0.5 -1.375 -0.859375q-1.109375 -0.375 -2.46875 -0.375q-1.921875 0 -3.09375 0.859375q-1.171875 0.859375 -1.171875 2.296875q0 1.28125 0.609375 2.125q0.625 0.828125 1.5625 1.34375q0.9375 0.5 2.5625 1.1875l0.859375 0.34375q2.375 0.9375 3.859375 1.796875q1.5 0.84375 2.5 2.234375q1.015625 1.375 1.015625 3.390625q0 3.15625 -2.453125 5.03125q-2.453125 1.875 -6.71875 1.875q-2.09375 0 -4.375 -0.578125q-2.28125 -0.578125 -3.734375 -1.171875l0 -5.453125l2.78125 0l0.765625 3.328125zm24.869507 3.828125q-2.4375 0 -3.640625 -1.109375q-1.1875 -1.109375 -1.1875 -3.796875l0 -16.375l-3.0625 0l0 -1.921875q0.203125 -0.046875 1.1875 -0.296875q0.984375 -0.25 1.328125 -0.46875q0.671875 -0.390625 1.0625 -1.53125q0.34375 -0.8125 0.8125 -2.59375q0.46875 -1.796875 0.546875 -2.140625l2.515625 0l0.09375 6.140625l7.125 0l0 2.8125l-7.125 0l0 13.09375q0 2.4375 0.140625 3.421875q0.15625 0.96875 0.640625 1.28125q0.5 0.296875 1.6875 0.296875q1.15625 0 2.53125 -0.296875q1.390625 -0.3125 2.15625 -0.65625l0.640625 1.921875q-1.015625 0.765625 -3.296875 1.5q-2.28125 0.71875 -4.15625 0.71875zm20.548523 0.046875q-5.15625 0 -7.875 -3.359375q-2.703125 -3.375 -2.703125 -9.015625q0 -3.703125 1.40625 -6.515625q1.421875 -2.828125 3.953125 -4.359375q2.53125 -1.53125 5.78125 -1.53125q3.96875 0 6.15625 2.203125q2.203125 2.1875 2.328125 6.28125q0 2.609375 -0.296875 3.96875l-14.671875 0q0.078125 4.21875 1.953125 6.8125q1.890625 2.578125 5.34375 2.578125q1.703125 0 3.546875 -0.625q1.859375 -0.625 2.890625 -1.46875l0.8125 1.875q-1.234375 1.28125 -3.671875 2.21875q-2.4375 0.9375 -4.953125 0.9375zm4.359375 -14.59375q0.125 -0.890625 0.125 -1.828125q-0.046875 -2.765625 -1.171875 -4.359375q-1.125 -1.609375 -3.5625 -1.609375q-2.46875 0 -3.953125 1.796875q-1.46875 1.78125 -1.671875 6.0l10.234375 0zm8.439392 12.03125l3.203125 -0.25l0 -18.046875l-3.078125 -0.765625l0 -2.296875l5.890625 -0.78125l0.09375 0l0.9375 0.78125l0 0.765625l-0.125 3.328125l0.125 0q0.421875 -0.734375 1.53125 -1.875q1.109375 -1.15625 2.859375 -2.109375q1.75 -0.96875 3.796875 -0.96875q0.859375 0 1.40625 0.21875l0 4.765625q-0.296875 -0.203125 -0.96875 -0.390625q-0.65625 -0.203125 -1.46875 -0.203125q-3.53125 0 -6.5625 2.171875l0 15.359375l5.421875 0.34375l0 2.046875l-13.0625 0l0 -2.09375zm24.489624 -25.84375q-1.359375 0 -2.046875 -0.765625q-0.6875 -0.765625 -0.6875 -1.96875q0 -1.359375 0.828125 -2.25q0.84375 -0.90625 2.296875 -0.90625q1.4375 0 2.125 0.765625q0.6875 0.765625 0.6875 1.96875q0 1.453125 -0.84375 2.3125q-0.828125 0.84375 -2.3125 0.84375l-0.046875 0zm-1.703125 7.546875l-3.25 -0.765625l0 -2.265625l6.609375 -0.8125l0.09375 0l0.984375 0.78125l0 21.015625l3.40625 0.34375l0 2.09375l-11.296875 0l0 -2.09375l3.453125 -0.375l0 -17.921875zm10.876404 8.484375q0 -3.828125 1.578125 -6.640625q1.578125 -2.828125 4.15625 -4.296875q2.578125 -1.46875 5.53125 -1.46875q5.375 0 8.078125 3.421875q2.703125 3.40625 2.703125 8.953125q0 3.875 -1.578125 6.6875q-1.578125 2.8125 -4.15625 4.265625q-2.578125 1.453125 -5.515625 1.453125q-5.375 0 -8.09375 -3.40625q-2.703125 -3.421875 -2.703125 -8.96875zm11.046875 9.9375q2.9375 0 4.515625 -2.421875q1.578125 -2.4375 1.578125 -7.21875q0 -4.734375 -1.453125 -7.5q-1.4375 -2.765625 -4.640625 -2.765625q-2.9375 0 -4.546875 2.4375q-1.59375 2.421875 -1.59375 7.1875q0 4.75 1.484375 7.515625q1.5 2.765625 4.65625 2.765625zm14.966187 -0.125l3.203125 -0.25l0 -18.046875l-3.078125 -0.765625l0 -2.296875l5.890625 -0.78125l0.09375 0l0.9375 0.78125l0 0.765625l-0.125 3.328125l0.125 0q0.421875 -0.734375 1.53125 -1.875q1.109375 -1.15625 2.859375 -2.109375q1.75 -0.96875 3.796875 -0.96875q0.859375 0 1.40625 0.21875l0 4.765625q-0.296875 -0.203125 -0.96875 -0.390625q-0.65625 -0.203125 -1.46875 -0.203125q-3.53125 0 -6.5625 2.171875l0 15.359375l5.421875 0.34375l0 2.046875l-13.0625 0l0 -2.09375z" fill-rule="nonzero"/><path fill="#31394d" d="m353.75906 42.35736l252.4819 0l0 109.435196l-252.4819 0z" fill-rule="evenodd"/><path fill="#ede3da" d="m436.72266 83.48808l-3.328125 -0.515625l0 -2.125l5.59375 0q1.3125 0 3.796875 -0.171875q2.46875 -0.171875 3.703125 -0.171875q7.9375 0 11.796875 3.984375q3.859375 3.984375 3.859375 11.203125q0 5.03125 -1.984375 8.9375q-1.984375 3.890625 -5.5625 6.078125q-3.578125 2.171875 -8.234375 2.171875q-1.015625 0 -3.5 -0.171875q-2.5625 -0.171875 -3.828125 -0.171875l-5.84375 0l0 -2.09375l3.53125 -0.421875l0 -26.53125zm4.53125 26.65625q1.484375 0.34375 3.828125 0.34375l1.28125 0q3.203125 -0.046875 5.65625 -1.625q2.453125 -1.578125 3.8125 -4.703125q1.375 -3.140625 1.375 -7.625q0 -6.734375 -2.921875 -10.234375q-2.921875 -3.5 -8.8125 -3.5q-1.234375 0 -2.953125 0.171875q-0.71875 0.125 -1.265625 0.125l0 27.046875zm24.223999 -4.0q0 -4.015625 4.0 -5.90625q4.015625 -1.90625 10.15625 -2.03125l0 -1.203125q0 -2.0 -0.421875 -3.140625q-0.421875 -1.15625 -1.46875 -1.6875q-1.046875 -0.546875 -2.96875 -0.546875q-2.171875 0 -3.90625 0.625q-1.71875 0.609375 -3.4375 1.515625l-1.0625 -2.21875q0.5625 -0.46875 2.046875 -1.234375q1.5 -0.765625 3.453125 -1.359375q1.96875 -0.609375 3.9375 -0.609375q3.015625 0 4.78125 0.84375q1.7812805 0.828125 2.5469055 2.65625q0.765625 1.828125 0.765625 4.90625l0 13.6875l2.515625 0l0 1.875q-0.84375 0.21875 -2.15625 0.421875q-1.296875 0.21875 -2.28125 0.21875q-1.1875305 0 -1.6250305 -0.359375q-0.421875 -0.359375 -0.421875 -1.59375l0 -1.40625q-1.28125 1.28125 -3.140625 2.34375q-1.84375 1.0625 -4.1875 1.0625q-3.078125 0 -5.109375 -1.765625q-2.015625 -1.78125 -2.015625 -5.09375zm8.953125 3.953125q1.109375 0 2.5625 -0.671875q1.453125 -0.6875 2.640625 -1.625l0 -7.34375q-4.640625 0 -7.015625 1.4375q-2.359375 1.421875 -2.359375 3.734375q0 2.296875 1.125 3.390625q1.125 1.078125 3.046875 1.078125zm22.273895 2.859375q-2.4375 0 -3.640625 -1.109375q-1.1875 -1.109375 -1.1875 -3.796875l0 -16.375l-3.0625 0l0 -1.921875q0.203125 -0.046875 1.1875 -0.296875q0.984375 -0.25 1.328125 -0.46875q0.671875 -0.390625 1.0625 -1.53125q0.34375 -0.8125 0.8125 -2.59375q0.46875 -1.796875 0.546875 -2.140625l2.515625 0l0.09375 6.140625l7.125 0l0 2.8125l-7.125 0l0 13.09375q0 2.4375 0.140625 3.421875q0.15625 0.96875 0.640625 1.28125q0.5 0.296875 1.6875 0.296875q1.15625 0 2.53125 -0.296875q1.390625 -0.3125 2.15625 -0.65625l0.640625 1.921875q-1.015625 0.765625 -3.296875 1.5q-2.28125 0.71875 -4.15625 0.71875zm10.064178 -6.8125q0 -4.015625 4.0 -5.90625q4.015625 -1.90625 10.15625 -2.03125l0 -1.203125q0 -2.0 -0.421875 -3.140625q-0.421875 -1.15625 -1.46875 -1.6875q-1.046875 -0.546875 -2.96875 -0.546875q-2.171875 0 -3.90625 0.625q-1.71875 0.609375 -3.4375 1.515625l-1.0625 -2.21875q0.5625 -0.46875 2.046875 -1.234375q1.5 -0.765625 3.453125 -1.359375q1.96875 -0.609375 3.9375 -0.609375q3.015625 0 4.78125 0.84375q1.78125 0.828125 2.546875 2.65625q0.765625 1.828125 0.765625 4.90625l0 13.6875l2.515625 0l0 1.875q-0.84375 0.21875 -2.15625 0.421875q-1.296875 0.21875 -2.28125 0.21875q-1.1875 0 -1.625 -0.359375q-0.421875 -0.359375 -0.421875 -1.59375l0 -1.40625q-1.28125 1.28125 -3.140625 2.34375q-1.84375 1.0625 -4.1875 1.0625q-3.078125 0 -5.109375 -1.765625q-2.015625 -1.78125 -2.015625 -5.09375zm8.953125 3.953125q1.109375 0 2.5625 -0.671875q1.453125 -0.6875 2.640625 -1.625l0 -7.34375q-4.640625 0 -7.015625 1.4375q-2.359375 1.421875 -2.359375 3.734375q0 2.296875 1.125 3.390625q1.125 1.078125 3.046875 1.078125z" fill-rule="nonzero"/><path fill="#000000" fill-opacity="0.0" d="m261.84085 287.86636l91.92209 0" fill-rule="evenodd"/><path stroke="#009384" stroke-width="4.0" stroke-linejoin="round" stroke-linecap="butt" d="m261.84085 287.86636l67.92212 0" fill-rule="evenodd"/><path fill="#009384" stroke="#009384" stroke-width="4.0" stroke-linecap="butt" d="m329.76297 294.4733l18.152374 -6.6069336l-18.152374 -6.6069336z" fill-rule="evenodd"/><path fill="#000000" fill-opacity="0.0" d="m606.24097 287.86603l91.92206 0.056610107" fill-rule="evenodd"/><path stroke="#009384" stroke-width="4.0" stroke-linejoin="round" stroke-linecap="butt" d="m606.24097 287.86603l67.92212 0.041809082" fill-rule="evenodd"/><path fill="#009384" stroke="#009384" stroke-width="4.0" stroke-linecap="butt" d="m674.159 294.51477l18.156433 -6.5957336l-18.148315 -6.618103z" fill-rule="evenodd"/><path fill="#000000" fill-opacity="0.0" d="m480.0 151.79256l0 81.35457" fill-rule="evenodd"/><path stroke="#009384" stroke-width="4.0" stroke-linejoin="round" stroke-linecap="butt" d="m480.0 151.79256l0 57.35457" fill-rule="evenodd"/><path fill="#009384" stroke="#009384" stroke-width="4.0" stroke-linecap="butt" d="m473.39307 209.14713l6.6069336 18.15239l6.6069336 -18.15239z" fill-rule="evenodd"/></g></svg>