<svg version="1.1" viewBox="0.0 0.0 960.0 188.9763779527559" fill="none" stroke="none" stroke-linecap="square" stroke-miterlimit="10" xmlns:xlink="http://www.w3.org/1999/xlink" xmlns="http://www.w3.org/2000/svg"><clipPath id="g5e17d9eec1_0_25.0"><path d="m0 0l960.0 0l0 188.97638l-960.0 0l0 -188.97638z" clip-rule="nonzero"/></clipPath><g clip-path="url(#g5e17d9eec1_0_25.0)"><path fill="#000000" fill-opacity="0.0" d="m0 0l960.0 0l0 188.97638l-960.0 0z" fill-rule="evenodd"/><path fill="#31394d" d="m40.839893 56.393566l170.07875 0l0 77.38582l-170.07875 0z" fill-rule="evenodd"/><path fill="#ffffff" d="m103.02234 103.62648l0 -16.015625l6.421875 0q2.28125 0 3.640625 1.375q1.375 1.375 1.375 3.453125q0 2.109375 -1.390625 3.46875q-1.390625 1.359375 -3.625 1.359375l-4.4375 0l0 6.359375l-1.984375 0zm6.1875 -8.140625q1.4375 0 2.3125 -0.828125q0.875 -0.84375 0.875 -2.21875q0 -1.359375 -0.875 -2.203125q-0.875 -0.84375 -2.3125 -0.84375l-4.203125 0l0 6.09375l4.203125 0zm12.57283 8.421875q-2.515625 0 -4.125 -1.703125q-1.609375 -1.71875 -1.609375 -4.390625q0 -2.6875 1.609375 -4.375q1.609375 -1.6875 4.125 -1.6875q2.53125 0 4.125 1.6875q1.609375 1.6875 1.609375 4.375q0 2.671875 -1.609375 4.390625q-1.59375 1.703125 -4.125 1.703125zm0 -1.59375q1.6875 0 2.765625 -1.265625q1.078125 -1.265625 1.078125 -3.234375q0 -1.9375 -1.078125 -3.1875q-1.078125 -1.265625 -2.765625 -1.265625q-1.671875 0 -2.765625 1.25q-1.09375 1.234375 -1.09375 3.203125q0 2.0 1.078125 3.25q1.078125 1.25 2.78125 1.25zm8.665466 1.3125l0 -16.015625l1.796875 0l0 16.015625l-1.796875 0zm5.3999786 0l0 -16.015625l1.796875 0l0 16.015625l-1.796875 0zm9.071854 0.28125q-2.953125 0 -4.671875 -1.8125l0.9375 -1.296875q0.5625 0.671875 1.578125 1.171875q1.03125 0.484375 2.234375 0.484375q1.34375 0 2.03125 -0.5625q0.703125 -0.5625 0.703125 -1.4375q0 -0.765625 -0.765625 -1.203125q-0.75 -0.453125 -2.8125 -0.921875q-1.75 -0.359375 -2.671875 -1.140625q-0.921875 -0.78125 -0.921875 -2.109375q0 -1.46875 1.171875 -2.390625q1.171875 -0.9375 3.140625 -0.9375q2.625 0 4.296875 1.671875l-0.84375 1.25q-0.515625 -0.625 -1.421875 -1.046875q-0.90625 -0.421875 -2.03125 -0.421875q-1.203125 0 -1.890625 0.53125q-0.671875 0.53125 -0.671875 1.296875q0 0.703125 0.765625 1.109375q0.765625 0.40625 2.828125 0.84375q1.75 0.40625 2.65625 1.234375q0.921875 0.828125 0.921875 2.1875q0 1.609375 -1.25 2.5625q-1.25 0.9375 -3.3125 0.9375z" fill-rule="nonzero"/><path fill="#31394d" d="m275.19684 56.393566l170.07877 0l0 77.38582l-170.07877 0z" fill-rule="evenodd"/><path fill="#ffffff" d="m319.2163 89.56648l0 -12.640625l-4.5 0l0 -1.578125l10.78125 0l0 1.578125l-4.515625 0l0 12.640625l-1.765625 0zm16.290527 0l-2.6875 -8.28125l-2.6875 8.28125l-1.59375 0l-3.296875 -10.296875l1.671875 0l2.515625 8.203125l2.703125 -8.203125l1.375 0l2.703125 8.203125l2.515625 -8.203125l1.671875 0l-3.296875 10.296875l-1.59375 0zm11.233032 0.25q-2.234375 0 -3.671875 -1.515625q-1.421875 -1.53125 -1.421875 -3.890625q0 -2.390625 1.421875 -3.890625q1.4375 -1.515625 3.671875 -1.515625q2.25 0 3.671875 1.515625q1.4375 1.5 1.4375 3.890625q0 2.359375 -1.4375 3.890625q-1.421875 1.515625 -3.671875 1.515625zm0 -1.421875q1.5 0 2.453125 -1.109375q0.96875 -1.125 0.96875 -2.875q0 -1.734375 -0.96875 -2.84375q-0.953125 -1.125 -2.453125 -1.125q-1.484375 0 -2.453125 1.109375q-0.96875 1.109375 -0.96875 2.859375q0 1.765625 0.953125 2.875q0.953125 1.109375 2.46875 1.109375zm6.7466125 -3.28125l0 -1.40625l5.125 0l0 1.40625l-5.125 0zm12.429718 4.703125q-2.1875 0 -3.46875 -1.8125l0 5.484375l-1.609375 0l0 -14.21875l1.609375 0l0 1.53125q0.546875 -0.796875 1.46875 -1.296875q0.921875 -0.5 2.0 -0.5q2.078125 0 3.328125 1.453125q1.265625 1.453125 1.265625 3.953125q0 2.46875 -1.25 3.9375q-1.25 1.46875 -3.34375 1.46875zm-0.40625 -1.421875q1.5 0 2.40625 -1.078125q0.90625 -1.09375 0.90625 -2.90625q0 -1.78125 -0.90625 -2.875q-0.890625 -1.09375 -2.40625 -1.09375q-0.953125 0 -1.796875 0.484375q-0.84375 0.46875 -1.265625 1.15625l0 4.640625q0.421875 0.6875 1.265625 1.1875q0.84375 0.484375 1.796875 0.484375zm13.980988 1.171875l0 -1.171875q-1.3125 1.421875 -3.421875 1.421875q-1.546875 0 -2.578125 -0.96875q-1.015625 -0.984375 -1.015625 -2.4375q0 -1.5 1.0 -2.4375q1.015625 -0.953125 2.59375 -0.953125q2.21875 0 3.421875 1.40625l0 -1.859375q0 -1.046875 -0.75 -1.609375q-0.734375 -0.5625 -1.859375 -0.5625q-1.8125 0 -3.15625 1.4375l-0.75 -1.109375q1.640625 -1.71875 4.125 -1.71875q1.890625 0 2.9375 0.921875q1.046875 0.921875 1.046875 2.5625l0 7.078125l-1.59375 0zm-2.84375 -0.890625q1.90625 0 2.84375 -1.28125l0 -1.9375q-0.9375 -1.28125 -2.84375 -1.28125q-1.125 0 -1.828125 0.625q-0.703125 0.625 -0.703125 1.625q0 0.984375 0.703125 1.625q0.703125 0.625 1.828125 0.625zm7.6305847 0.890625l0 -10.296875l1.609375 0l0 1.65625q1.421875 -1.875 3.4375 -1.875l0 1.640625l-0.640625 -0.0625q-0.734375 0 -1.609375 0.53125q-0.875 0.515625 -1.1875 1.109375l0 7.296875l-1.609375 0zm9.647675 0.25q-2.28125 0 -2.28125 -2.40625l0 -6.734375l-1.703125 0l0 -1.40625l1.703125 0l0 -2.8125l1.59375 0l0 2.8125l2.09375 0l0 1.40625l-2.09375 0l0 6.390625q0 0.578125 0.25 0.953125q0.265625 0.375 0.796875 0.375q0.65625 0 1.09375 -0.421875l0.46875 1.1875q-0.671875 0.65625 -1.921875 0.65625zm3.3486328 2.328125q0.34375 0.171875 0.875 0.171875q0.53125 0 0.890625 -0.234375q0.359375 -0.21875 0.640625 -0.859375l0.6875 -1.546875l-4.3125 -10.40625l1.734375 0l3.421875 8.4375l3.4218445 -8.4375l1.75 0l-5.1718445 12.390625q-0.84375 2.046875 -3.015625 2.09375q-0.625 0 -1.171875 -0.15625l0.25 -1.453125z" fill-rule="nonzero"/><path fill="#ffffff" d="m299.8735 115.81648q-2.1875 0 -3.46875 -1.8125l0 5.484375l-1.609375 0l0 -14.21875l1.609375 0l0 1.53125q0.546875 -0.796875 1.46875 -1.296875q0.921875 -0.5 2.0 -0.5q2.078125 0 3.328125 1.453125q1.265625 1.453125 1.265625 3.953125q0 2.46875 -1.25 3.9375q-1.25 1.46875 -3.34375 1.46875zm-0.40625 -1.421875q1.5 0 2.40625 -1.078125q0.90625 -1.09375 0.90625 -2.90625q0 -1.78125 -0.90625 -2.875q-0.890625 -1.09375 -2.40625 -1.09375q-0.953125 0 -1.796875 0.484375q-0.84375 0.46875 -1.265625 1.15625l0 4.640625q0.421875 0.6875 1.265625 1.1875q0.84375 0.484375 1.796875 0.484375zm7.5278625 1.171875l0 -10.296875l1.609375 0l0 1.65625q1.421875 -1.875 3.4375 -1.875l0 1.640625l-0.640625 -0.0625q-0.734375 0 -1.609375 0.53125q-0.875 0.515625 -1.1875 1.109375l0 7.296875l-1.609375 0zm11.69458 0.25q-2.328125 0 -3.796875 -1.5q-1.453125 -1.515625 -1.453125 -3.90625q0 -2.28125 1.453125 -3.84375q1.453125 -1.5625 3.625 -1.5625q2.21875 0 3.578125 1.546875q1.375 1.53125 1.375 3.984375l0 0.40625l-8.34375 0q0.078125 1.578125 1.140625 2.578125q1.0625 0.984375 2.578125 0.984375q1.875 0 3.171875 -1.3125l0.765625 1.046875q-1.578125 1.578125 -4.09375 1.578125zm3.203125 -6.046875q0 -1.4375 -0.9375 -2.4375q-0.9375 -1.0 -2.453125 -1.0q-1.4375 0 -2.390625 1.0q-0.9375 1.0 -0.984375 2.4375l6.765625 0zm4.601532 5.796875l0 -8.890625l-1.703125 0l0 -1.40625l1.703125 0l0 -0.796875q0 -1.59375 0.796875 -2.46875q0.796875 -0.875 2.1875 -0.875q1.296875 0 2.171875 0.78125l-0.65625 1.046875q-0.546875 -0.5 -1.28125 -0.5q-1.625 0 -1.625 2.015625l0 0.796875l2.09375 0l0 1.40625l-2.09375 0l0 8.890625l-1.59375 0zm10.239014 0.25q-2.328125 0 -3.796875 -1.5q-1.453125 -1.515625 -1.453125 -3.90625q0 -2.28125 1.453125 -3.84375q1.453125 -1.5625 3.625 -1.5625q2.21875 0 3.578125 1.546875q1.375 1.53125 1.375 3.984375l0 0.40625l-8.34375 0q0.078125 1.578125 1.140625 2.578125q1.0625 0.984375 2.578125 0.984375q1.875 0 3.171875 -1.3125l0.765625 1.046875q-1.578125 1.578125 -4.09375 1.578125zm3.203125 -6.046875q0 -1.4375 -0.9375 -2.4375q-0.9375 -1.0 -2.453125 -1.0q-1.4375 0 -2.390625 1.0q-0.9375 1.0 -0.984375 2.4375l6.765625 0zm4.148407 5.796875l0 -10.296875l1.609375 0l0 1.65625q1.421875 -1.875 3.4375 -1.875l0 1.640625l-0.640625 -0.0625q-0.734375 0 -1.609375 0.53125q-0.875 0.515625 -1.1875 1.109375l0 7.296875l-1.609375 0zm7.0382996 0l0 -10.296875l1.609375 0l0 1.65625q1.421875 -1.875 3.4375 -1.875l0 1.640625l-0.640625 -0.0625q-0.734375 0 -1.609375 0.53125q-0.875 0.515625 -1.1875 1.109375l0 7.296875l-1.609375 0zm11.69458 0.25q-2.328125 0 -3.796875 -1.5q-1.453125 -1.515625 -1.453125 -3.90625q0 -2.28125 1.453125 -3.84375q1.453125 -1.5625 3.625 -1.5625q2.21875 0 3.578125 1.546875q1.375 1.53125 1.375 3.984375l0 0.40625l-8.34375 0q0.078125 1.578125 1.140625 2.578125q1.0625 0.984375 2.578125 0.984375q1.875 0 3.171875 -1.3125l0.765625 1.046875q-1.578125 1.578125 -4.09375 1.578125zm3.203125 -6.046875q0 -1.4375 -0.9375 -2.4375q-0.9375 -1.0 -2.453125 -1.0q-1.4375 0 -2.390625 1.0q-0.9375 1.0 -0.984375 2.4375l6.765625 0zm11.617157 5.796875l0 -1.53125q-0.578125 0.78125 -1.484375 1.28125q-0.90625 0.5 -1.984375 0.5q-2.078125 0 -3.34375 -1.46875q-1.25 -1.46875 -1.25 -3.921875q0 -2.46875 1.265625 -3.9375q1.28125 -1.484375 3.328125 -1.484375q1.046875 0 1.953125 0.484375q0.90625 0.484375 1.515625 1.328125l0 -5.46875l1.609375 0l0 14.21875l-1.609375 0zm-3.09375 -1.171875q0.96875 0 1.8125 -0.46875q0.859375 -0.46875 1.28125 -1.15625l0 -4.671875q-0.421875 -0.671875 -1.28125 -1.15625q-0.84375 -0.5 -1.8125 -0.5q-1.484375 0 -2.390625 1.09375q-0.90625 1.078125 -0.90625 2.890625q0 1.765625 0.890625 2.875q0.890625 1.09375 2.40625 1.09375zm16.141388 1.171875l-4.28125 -10.296875l1.734375 0l3.421875 8.4375l3.421875 -8.4375l1.75 0l-4.296875 10.296875l-1.75 0zm12.200836 0.25q-2.234375 0 -3.671875 -1.515625q-1.421875 -1.53125 -1.421875 -3.890625q0 -2.390625 1.421875 -3.890625q1.4375 -1.515625 3.671875 -1.515625q2.25 0 3.671875 1.515625q1.4375 1.5 1.4375 3.890625q0 2.359375 -1.4375 3.890625q-1.421875 1.515625 -3.671875 1.515625zm0 -1.421875q1.5 0 2.453125 -1.109375q0.96875 -1.125 0.96875 -2.875q0 -1.734375 -0.96875 -2.84375q-0.953125 -1.125 -2.453125 -1.125q-1.484375 0 -2.453125 1.109375q-0.96875 1.109375 -0.96875 2.859375q0 1.765625 0.953125 2.875q0.953125 1.109375 2.46875 1.109375zm10.309113 1.421875q-2.28125 0 -2.28125 -2.40625l0 -6.734375l-1.703125 0l0 -1.40625l1.703125 0l0 -2.8125l1.59375 0l0 2.8125l2.09375 0l0 1.40625l-2.09375 0l0 6.390625q0 0.578125 0.25 0.953125q0.265625 0.375 0.796875 0.375q0.65625 0 1.09375 -0.421875l0.46875 1.1875q-0.671875 0.65625 -1.921875 0.65625zm8.317352 0q-2.328125 0 -3.796875 -1.5q-1.453125 -1.515625 -1.453125 -3.90625q0 -2.28125 1.453125 -3.84375q1.453125 -1.5625 3.625 -1.5625q2.21875 0 3.578125 1.546875q1.375 1.53125 1.375 3.984375l0 0.40625l-8.34375 0q0.078125 1.578125 1.140625 2.578125q1.0625 0.984375 2.578125 0.984375q1.875 0 3.171875 -1.3125l0.765625 1.046875q-1.578125 1.578125 -4.09375 1.578125zm3.203125 -6.046875q0 -1.4375 -0.9375 -2.4375q-0.9375 -1.0 -2.453125 -1.0q-1.4375 0 -2.390625 1.0q-0.9375 1.0 -0.984375 2.4375l6.765625 0z" fill-rule="nonzero"/><path fill="#31394d" d="m509.5538 56.393566l170.07877 0l0 77.38582l-170.07877 0z" fill-rule="evenodd"/><path fill="#ffffff" d="m549.0277 103.62648l1.46875 -4.34375l-2.671875 0l-1.4375 4.34375l-1.484375 0l1.46875 -4.34375l-2.546875 0l0.40625 -1.265625l2.5625 0l1.59375 -4.78125l-2.59375 0l0.375 -1.25l2.640625 0l1.4375 -4.375l1.5 0l-1.4375 4.375l2.625 0l1.453125 -4.375l1.453125 0l-1.453125 4.375l2.5625 0l-0.359375 1.25l-2.609375 0l-1.609375 4.78125l2.65625 0l-0.375 1.265625l-2.71875 0l-1.4375 4.34375l-1.46875 0zm3.453125 -10.390625l-2.640625 0l-1.578125 4.78125l2.640625 0l1.578125 -4.78125zm18.023804 10.671875q-2.515625 0 -4.125 -1.703125q-1.609375 -1.71875 -1.609375 -4.390625q0 -2.6875 1.609375 -4.375q1.609375 -1.6875 4.125 -1.6875q2.53125 0 4.125 1.6875q1.609375 1.6875 1.609375 4.375q0 2.671875 -1.609375 4.390625q-1.59375 1.703125 -4.125 1.703125zm0 -1.59375q1.6875 0 2.765625 -1.265625q1.078125 -1.265625 1.078125 -3.234375q0 -1.9375 -1.078125 -3.1875q-1.078125 -1.265625 -2.765625 -1.265625q-1.671875 0 -2.765625 1.25q-1.09375 1.234375 -1.09375 3.203125q0 2.0 1.078125 3.25q1.078125 1.25 2.78125 1.25zm9.165466 1.3125l0 -10.015625l-1.90625 0l0 -1.578125l1.90625 0l0 -0.890625q0 -1.796875 0.90625 -2.78125q0.90625 -0.984375 2.453125 -0.984375q1.46875 0 2.453125 0.890625l-0.734375 1.171875q-0.625 -0.578125 -1.453125 -0.578125q-1.8125 0 -1.8125 2.28125l0 0.890625l2.34375 0l0 1.578125l-2.34375 0l0 10.015625l-1.8125 0zm16.155823 0.28125q-2.953125 0 -4.671875 -1.8125l0.9375 -1.296875q0.5625 0.671875 1.578125 1.171875q1.03125 0.484375 2.234375 0.484375q1.34375 0 2.03125 -0.5625q0.703125 -0.5625 0.703125 -1.4375q0 -0.765625 -0.765625 -1.203125q-0.75 -0.453125 -2.8125 -0.921875q-1.75 -0.359375 -2.671875 -1.140625q-0.921875 -0.78125 -0.921875 -2.109375q0 -1.46875 1.171875 -2.390625q1.171875 -0.9375 3.140625 -0.9375q2.625 0 4.296875 1.671875l-0.84375 1.25q-0.515625 -0.625 -1.421875 -1.046875q-0.90625 -0.421875 -2.03125 -0.421875q-1.203125 0 -1.890625 0.53125q-0.671875 0.53125 -0.671875 1.296875q0 0.703125 0.765625 1.109375q0.765625 0.40625 2.828125 0.84375q1.75 0.40625 2.65625 1.234375q0.921875 0.828125 0.921875 2.1875q0 1.609375 -1.25 2.5625q-1.25 0.9375 -3.3125 0.9375zm12.722473 0q-2.609375 0 -4.265625 -1.703125q-1.640625 -1.703125 -1.640625 -4.390625q0 -2.5625 1.625 -4.3125q1.640625 -1.75 4.09375 -1.75q2.5 0 4.03125 1.734375q1.53125 1.71875 1.53125 4.484375l0 0.453125l-9.375 0q0.09375 1.765625 1.28125 2.890625q1.1875 1.109375 2.890625 1.109375q2.109375 0 3.578125 -1.453125l0.859375 1.171875q-1.78125 1.765625 -4.609375 1.765625zm3.59375 -6.8125q0 -1.609375 -1.0625 -2.734375q-1.046875 -1.125 -2.75 -1.125q-1.609375 0 -2.671875 1.125q-1.0625 1.125 -1.109375 2.734375l7.59375 0zm11.933838 6.53125l0 -1.3125q-1.46875 1.59375 -3.84375 1.59375q-1.75 0 -2.90625 -1.09375q-1.140625 -1.109375 -1.140625 -2.734375q0 -1.6875 1.140625 -2.75q1.140625 -1.078125 2.90625 -1.078125q2.5 0 3.84375 1.59375l0 -2.09375q0 -1.171875 -0.828125 -1.796875q-0.828125 -0.640625 -2.09375 -0.640625q-2.046875 0 -3.5625 1.59375l-0.828125 -1.234375q1.84375 -1.921875 4.625 -1.921875q2.140625 0 3.3125 1.03125q1.171875 1.03125 1.171875 2.875l0 7.96875l-1.796875 0zm-3.1875 -1.015625q2.125 0 3.1875 -1.4375l0 -2.171875q-1.0625 -1.453125 -3.1875 -1.453125q-1.28125 0 -2.078125 0.71875q-0.78125 0.703125 -0.78125 1.828125q0 1.109375 0.78125 1.8125q0.796875 0.703125 2.078125 0.703125zm11.522949 1.296875q-2.578125 0 -2.578125 -2.703125l0 -7.59375l-1.921875 0l0 -1.578125l1.921875 0l0 -3.171875l1.796875 0l0 3.171875l2.359375 0l0 1.578125l-2.359375 0l0 7.203125q0 0.65625 0.28125 1.078125q0.296875 0.421875 0.90625 0.421875q0.734375 0 1.21875 -0.484375l0.53125 1.34375q-0.75 0.734375 -2.15625 0.734375zm7.7904053 0q-2.953125 0 -4.671875 -1.8125l0.9375 -1.296875q0.5625 0.671875 1.578125 1.171875q1.03125 0.484375 2.234375 0.484375q1.34375 0 2.03125 -0.5625q0.703125 -0.5625 0.703125 -1.4375q0 -0.765625 -0.765625 -1.203125q-0.75 -0.453125 -2.8125 -0.921875q-1.75 -0.359375 -2.671875 -1.140625q-0.921875 -0.78125 -0.921875 -2.109375q0 -1.46875 1.171875 -2.390625q1.171875 -0.9375 3.140625 -0.9375q2.625 0 4.296875 1.671875l-0.84375 1.25q-0.515625 -0.625 -1.421875 -1.046875q-0.90625 -0.421875 -2.03125 -0.421875q-1.203125 0 -1.890625 0.53125q-0.671875 0.53125 -0.671875 1.296875q0 0.703125 0.765625 1.109375q0.765625 0.40625 2.828125 0.84375q1.75 0.40625 2.65625 1.234375q0.921875 0.828125 0.921875 2.1875q0 1.609375 -1.25 2.5625q-1.25 0.9375 -3.3125 0.9375z" fill-rule="nonzero"/><path fill="#000000" fill-opacity="0.0" d="m210.91339 95.08648l64.28345 0" fill-rule="evenodd"/><path stroke="#009384" stroke-width="4.0" stroke-linejoin="round" stroke-linecap="butt" d="m210.91339 95.08648l40.283463 0" fill-rule="evenodd"/><path fill="#009384" stroke="#009384" stroke-width="4.0" stroke-linecap="butt" d="m251.19685 101.69341l18.15239 -6.6069336l-18.15239 -6.606926z" fill-rule="evenodd"/><path fill="#31394d" fill-opacity="0.1564" d="m743.91077 56.393566l170.07874 0l0 77.38582l-170.07874 0z" fill-rule="evenodd"/><path fill="#ffffff" d="m805.8236 103.62648l-3.53125 -12.90625l-3.515625 12.90625l-2.171875 0l-4.546875 -16.015625l2.203125 0l3.546875 13.359375l3.671875 -13.359375l1.65625 0l3.671875 13.359375l3.53125 -13.359375l2.203125 0l-4.5625 16.015625l-2.15625 0zm9.770081 -13.25q-0.484375 0 -0.84375 -0.34375q-0.359375 -0.34375 -0.359375 -0.859375q0 -0.5 0.359375 -0.859375q0.359375 -0.359375 0.84375 -0.359375q0.5 0 0.859375 0.359375q0.359375 0.359375 0.359375 0.859375q0 0.515625 -0.359375 0.859375q-0.359375 0.34375 -0.859375 0.34375zm-0.890625 13.25l0 -11.59375l1.796875 0l0 11.59375l-1.796875 0zm13.228088 0l0 -7.578125q0 -1.546875 -0.71875 -2.109375q-0.703125 -0.578125 -1.875 -0.578125q-1.0 0 -1.984375 0.546875q-0.96875 0.53125 -1.453125 1.25l0 8.46875l-1.796875 0l0 -11.59375l1.796875 0l0 1.6875q0.75 -0.875 1.84375 -1.421875q1.09375 -0.546875 2.296875 -0.546875q3.6875 0 3.6875 3.734375l0 8.140625l-1.796875 0zm13.223938 0l0 -7.578125q0 -1.546875 -0.71875 -2.109375q-0.703125 -0.578125 -1.875 -0.578125q-1.0 0 -1.984375 0.546875q-0.96875 0.53125 -1.453125 1.25l0 8.46875l-1.796875 0l0 -11.59375l1.796875 0l0 1.6875q0.75 -0.875 1.84375 -1.421875q1.09375 -0.546875 2.296875 -0.546875q3.6875 0 3.6875 3.734375l0 8.140625l-1.796875 0zm10.630249 0.28125q-2.609375 0 -4.265625 -1.703125q-1.640625 -1.703125 -1.640625 -4.390625q0 -2.5625 1.625 -4.3125q1.640625 -1.75 4.09375 -1.75q2.5 0 4.03125 1.734375q1.53125 1.71875 1.53125 4.484375l0 0.453125l-9.375 0q0.09375 1.765625 1.28125 2.890625q1.1875 1.109375 2.890625 1.109375q2.109375 0 3.578125 -1.453125l0.859375 1.171875q-1.78125 1.765625 -4.609375 1.765625zm3.59375 -6.8125q0 -1.609375 -1.0625 -2.734375q-1.046875 -1.125 -2.75 -1.125q-1.609375 0 -2.671875 1.125q-1.0625 1.125 -1.109375 2.734375l7.59375 0zm4.683838 6.53125l0 -11.59375l1.796875 0l0 1.875q1.609375 -2.109375 3.875 -2.109375l0 1.84375l-0.71875 -0.078125q-0.828125 0 -1.8125 0.59375q-0.984375 0.59375 -1.34375 1.265625l0 8.203125l-1.796875 0z" fill-rule="nonzero"/><path fill="#000000" fill-opacity="0.0" d="m445.27298 95.08648l64.28345 0" fill-rule="evenodd"/><path stroke="#009384" stroke-width="4.0" stroke-linejoin="round" stroke-linecap="butt" d="m445.27298 95.08648l40.283447 0" fill-rule="evenodd"/><path fill="#009384" stroke="#009384" stroke-width="4.0" stroke-linecap="butt" d="m485.55643 101.69341l18.152405 -6.6069336l-18.152405 -6.606926z" fill-rule="evenodd"/><path fill="#000000" fill-opacity="0.0" d="m679.63257 95.08648l64.28345 0" fill-rule="evenodd"/><path stroke="#8aafab" stroke-width="4.0" stroke-linejoin="round" stroke-linecap="butt" d="m679.63257 95.08648l40.283447 0" fill-rule="evenodd"/><path fill="#8aafab" stroke="#8aafab" stroke-width="4.0" stroke-linecap="butt" d="m719.916 101.69341l18.152405 -6.6069336l-18.152405 -6.606926z" fill-rule="evenodd"/></g></svg>