<?xml version="1.0" encoding="UTF-8" standalone="no"?>
<svg xmlns:svg="http://www.w3.org/2000/svg"
xmlns="http://www.w3.org/2000/svg" version="1.1"
width="360.0" height="162.2">
<!-- Created with the Wikimedia westminster parliament diagram creator (http://tools.wmflabs.org/parliamentdiagram/westminsterinputform.html) -->
<g id="diagram">
  <g id="headbench">
  <g style="fill:#195DB5" id="Speaker">
    <rect x="5.7609" y="74.2391" rx="6.85" ry="6.85" width="13.70" height="13.70"/>
  </g>
  </g>
  <g id="leftbench">
  <g style="fill:#FF0000" id="ALP">
    <rect x="20.9783" y="51.4130" rx="6.85" ry="6.85" width="13.70" height="13.70"/>
    <rect x="20.9783" y="36.1957" rx="6.85" ry="6.85" width="13.70" height="13.70"/>
    <rect x="20.9783" y="20.9783" rx="6.85" ry="6.85" width="13.70" height="13.70"/>
    <rect x="20.9783" y="5.7609" rx="6.85" ry="6.85" width="13.70" height="13.70"/>
    <rect x="36.1957" y="51.4130" rx="6.85" ry="6.85" width="13.70" height="13.70"/>
    <rect x="36.1957" y="36.1957" rx="6.85" ry="6.85" width="13.70" height="13.70"/>
    <rect x="36.1957" y="20.9783" rx="6.85" ry="6.85" width="13.70" height="13.70"/>
    <rect x="36.1957" y="5.7609" rx="6.85" ry="6.85" width="13.70" height="13.70"/>
    <rect x="51.4130" y="51.4130" rx="6.85" ry="6.85" width="13.70" height="13.70"/>
    <rect x="51.4130" y="36.1957" rx="6.85" ry="6.85" width="13.70" height="13.70"/>
    <rect x="51.4130" y="20.9783" rx="6.85" ry="6.85" width="13.70" height="13.70"/>
    <rect x="51.4130" y="5.7609" rx="6.85" ry="6.85" width="13.70" height="13.70"/>
    <rect x="66.6304" y="51.4130" rx="6.85" ry="6.85" width="13.70" height="13.70"/>
    <rect x="66.6304" y="36.1957" rx="6.85" ry="6.85" width="13.70" height="13.70"/>
    <rect x="66.6304" y="20.9783" rx="6.85" ry="6.85" width="13.70" height="13.70"/>
    <rect x="66.6304" y="5.7609" rx="6.85" ry="6.85" width="13.70" height="13.70"/>
    <rect x="81.8478" y="51.4130" rx="6.85" ry="6.85" width="13.70" height="13.70"/>
    <rect x="81.8478" y="36.1957" rx="6.85" ry="6.85" width="13.70" height="13.70"/>
    <rect x="81.8478" y="20.9783" rx="6.85" ry="6.85" width="13.70" height="13.70"/>
    <rect x="81.8478" y="5.7609" rx="6.85" ry="6.85" width="13.70" height="13.70"/>
    <rect x="97.0652" y="51.4130" rx="6.85" ry="6.85" width="13.70" height="13.70"/>
    <rect x="97.0652" y="36.1957" rx="6.85" ry="6.85" width="13.70" height="13.70"/>
    <rect x="97.0652" y="20.9783" rx="6.85" ry="6.85" width="13.70" height="13.70"/>
    <rect x="97.0652" y="5.7609" rx="6.85" ry="6.85" width="13.70" height="13.70"/>
    <rect x="112.2826" y="51.4130" rx="6.85" ry="6.85" width="13.70" height="13.70"/>
    <rect x="112.2826" y="36.1957" rx="6.85" ry="6.85" width="13.70" height="13.70"/>
    <rect x="112.2826" y="20.9783" rx="6.85" ry="6.85" width="13.70" height="13.70"/>
    <rect x="112.2826" y="5.7609" rx="6.85" ry="6.85" width="13.70" height="13.70"/>
    <rect x="127.5000" y="51.4130" rx="6.85" ry="6.85" width="13.70" height="13.70"/>
    <rect x="127.5000" y="36.1957" rx="6.85" ry="6.85" width="13.70" height="13.70"/>
    <rect x="127.5000" y="20.9783" rx="6.85" ry="6.85" width="13.70" height="13.70"/>
    <rect x="127.5000" y="5.7609" rx="6.85" ry="6.85" width="13.70" height="13.70"/>
    <rect x="142.7174" y="51.4130" rx="6.85" ry="6.85" width="13.70" height="13.70"/>
    <rect x="142.7174" y="36.1957" rx="6.85" ry="6.85" width="13.70" height="13.70"/>
    <rect x="142.7174" y="20.9783" rx="6.85" ry="6.85" width="13.70" height="13.70"/>
    <rect x="142.7174" y="5.7609" rx="6.85" ry="6.85" width="13.70" height="13.70"/>
    <rect x="157.9348" y="51.4130" rx="6.85" ry="6.85" width="13.70" height="13.70"/>
    <rect x="157.9348" y="36.1957" rx="6.85" ry="6.85" width="13.70" height="13.70"/>
    <rect x="157.9348" y="20.9783" rx="6.85" ry="6.85" width="13.70" height="13.70"/>
    <rect x="157.9348" y="5.7609" rx="6.85" ry="6.85" width="13.70" height="13.70"/>
    <rect x="173.1522" y="51.4130" rx="6.85" ry="6.85" width="13.70" height="13.70"/>
    <rect x="173.1522" y="36.1957" rx="6.85" ry="6.85" width="13.70" height="13.70"/>
    <rect x="173.1522" y="20.9783" rx="6.85" ry="6.85" width="13.70" height="13.70"/>
    <rect x="173.1522" y="5.7609" rx="6.85" ry="6.85" width="13.70" height="13.70"/>
    <rect x="188.3696" y="51.4130" rx="6.85" ry="6.85" width="13.70" height="13.70"/>
    <rect x="188.3696" y="36.1957" rx="6.85" ry="6.85" width="13.70" height="13.70"/>
    <rect x="188.3696" y="20.9783" rx="6.85" ry="6.85" width="13.70" height="13.70"/>
    <rect x="188.3696" y="5.7609" rx="6.85" ry="6.85" width="13.70" height="13.70"/>
    <rect x="203.5870" y="51.4130" rx="6.85" ry="6.85" width="13.70" height="13.70"/>
    <rect x="203.5870" y="36.1957" rx="6.85" ry="6.85" width="13.70" height="13.70"/>
    <rect x="203.5870" y="20.9783" rx="6.85" ry="6.85" width="13.70" height="13.70"/>
    <rect x="203.5870" y="5.7609" rx="6.85" ry="6.85" width="13.70" height="13.70"/>
    <rect x="218.8043" y="51.4130" rx="6.85" ry="6.85" width="13.70" height="13.70"/>
    <rect x="218.8043" y="36.1957" rx="6.85" ry="6.85" width="13.70" height="13.70"/>
    <rect x="218.8043" y="20.9783" rx="6.85" ry="6.85" width="13.70" height="13.70"/>
    <rect x="218.8043" y="5.7609" rx="6.85" ry="6.85" width="13.70" height="13.70"/>
    <rect x="234.0217" y="51.4130" rx="6.85" ry="6.85" width="13.70" height="13.70"/>
    <rect x="234.0217" y="36.1957" rx="6.85" ry="6.85" width="13.70" height="13.70"/>
    <rect x="234.0217" y="20.9783" rx="6.85" ry="6.85" width="13.70" height="13.70"/>
    <rect x="234.0217" y="5.7609" rx="6.85" ry="6.85" width="13.70" height="13.70"/>
    <rect x="249.2391" y="51.4130" rx="6.85" ry="6.85" width="13.70" height="13.70"/>
    <rect x="249.2391" y="36.1957" rx="6.85" ry="6.85" width="13.70" height="13.70"/>
    <rect x="249.2391" y="20.9783" rx="6.85" ry="6.85" width="13.70" height="13.70"/>
    <rect x="249.2391" y="5.7609" rx="6.85" ry="6.85" width="13.70" height="13.70"/>
    <rect x="264.4565" y="51.4130" rx="6.85" ry="6.85" width="13.70" height="13.70"/>
    <rect x="264.4565" y="36.1957" rx="6.85" ry="6.85" width="13.70" height="13.70"/>
    <rect x="264.4565" y="20.9783" rx="6.85" ry="6.85" width="13.70" height="13.70"/>
    <rect x="264.4565" y="5.7609" rx="6.85" ry="6.85" width="13.70" height="13.70"/>
  </g>
  </g>
  <g id="rightbench">
  <g style="fill:#195DB5" id="Liberal">
    <rect x="20.9783" y="97.0652" rx="6.85" ry="6.85" width="13.70" height="13.70"/>
    <rect x="20.9783" y="112.2826" rx="6.85" ry="6.85" width="13.70" height="13.70"/>
    <rect x="20.9783" y="127.5000" rx="6.85" ry="6.85" width="13.70" height="13.70"/>
    <rect x="20.9783" y="142.7174" rx="6.85" ry="6.85" width="13.70" height="13.70"/>
    <rect x="36.1957" y="97.0652" rx="6.85" ry="6.85" width="13.70" height="13.70"/>
    <rect x="36.1957" y="112.2826" rx="6.85" ry="6.85" width="13.70" height="13.70"/>
    <rect x="36.1957" y="127.5000" rx="6.85" ry="6.85" width="13.70" height="13.70"/>
    <rect x="36.1957" y="142.7174" rx="6.85" ry="6.85" width="13.70" height="13.70"/>
    <rect x="51.4130" y="97.0652" rx="6.85" ry="6.85" width="13.70" height="13.70"/>
    <rect x="51.4130" y="112.2826" rx="6.85" ry="6.85" width="13.70" height="13.70"/>
    <rect x="51.4130" y="127.5000" rx="6.85" ry="6.85" width="13.70" height="13.70"/>
    <rect x="51.4130" y="142.7174" rx="6.85" ry="6.85" width="13.70" height="13.70"/>
    <rect x="66.6304" y="97.0652" rx="6.85" ry="6.85" width="13.70" height="13.70"/>
    <rect x="66.6304" y="112.2826" rx="6.85" ry="6.85" width="13.70" height="13.70"/>
    <rect x="66.6304" y="127.5000" rx="6.85" ry="6.85" width="13.70" height="13.70"/>
    <rect x="66.6304" y="142.7174" rx="6.85" ry="6.85" width="13.70" height="13.70"/>
    <rect x="81.8478" y="97.0652" rx="6.85" ry="6.85" width="13.70" height="13.70"/>
    <rect x="81.8478" y="112.2826" rx="6.85" ry="6.85" width="13.70" height="13.70"/>
    <rect x="81.8478" y="127.5000" rx="6.85" ry="6.85" width="13.70" height="13.70"/>
    <rect x="81.8478" y="142.7174" rx="6.85" ry="6.85" width="13.70" height="13.70"/>
    <rect x="97.0652" y="97.0652" rx="6.85" ry="6.85" width="13.70" height="13.70"/>
    <rect x="97.0652" y="112.2826" rx="6.85" ry="6.85" width="13.70" height="13.70"/>
    <rect x="97.0652" y="127.5000" rx="6.85" ry="6.85" width="13.70" height="13.70"/>
    <rect x="97.0652" y="142.7174" rx="6.85" ry="6.85" width="13.70" height="13.70"/>
    <rect x="112.2826" y="97.0652" rx="6.85" ry="6.85" width="13.70" height="13.70"/>
    <rect x="112.2826" y="112.2826" rx="6.85" ry="6.85" width="13.70" height="13.70"/>
    <rect x="112.2826" y="127.5000" rx="6.85" ry="6.85" width="13.70" height="13.70"/>
    <rect x="112.2826" y="142.7174" rx="6.85" ry="6.85" width="13.70" height="13.70"/>
    <rect x="127.5000" y="97.0652" rx="6.85" ry="6.85" width="13.70" height="13.70"/>
    <rect x="127.5000" y="112.2826" rx="6.85" ry="6.85" width="13.70" height="13.70"/>
    <rect x="127.5000" y="127.5000" rx="6.85" ry="6.85" width="13.70" height="13.70"/>
    <rect x="127.5000" y="142.7174" rx="6.85" ry="6.85" width="13.70" height="13.70"/>
    <rect x="142.7174" y="97.0652" rx="6.85" ry="6.85" width="13.70" height="13.70"/>
    <rect x="142.7174" y="112.2826" rx="6.85" ry="6.85" width="13.70" height="13.70"/>
    <rect x="142.7174" y="127.5000" rx="6.85" ry="6.85" width="13.70" height="13.70"/>
    <rect x="142.7174" y="142.7174" rx="6.85" ry="6.85" width="13.70" height="13.70"/>
    <rect x="157.9348" y="97.0652" rx="6.85" ry="6.85" width="13.70" height="13.70"/>
    <rect x="157.9348" y="112.2826" rx="6.85" ry="6.85" width="13.70" height="13.70"/>
    <rect x="157.9348" y="127.5000" rx="6.85" ry="6.85" width="13.70" height="13.70"/>
    <rect x="157.9348" y="142.7174" rx="6.85" ry="6.85" width="13.70" height="13.70"/>
    <rect x="173.1522" y="97.0652" rx="6.85" ry="6.85" width="13.70" height="13.70"/>
    <rect x="173.1522" y="112.2826" rx="6.85" ry="6.85" width="13.70" height="13.70"/>
    <rect x="173.1522" y="127.5000" rx="6.85" ry="6.85" width="13.70" height="13.70"/>
    <rect x="173.1522" y="142.7174" rx="6.85" ry="6.85" width="13.70" height="13.70"/>
    <rect x="188.3696" y="97.0652" rx="6.85" ry="6.85" width="13.70" height="13.70"/>
  </g>
  <g style="fill:#2778F1" id="LNP">
    <rect x="188.3696" y="112.2826" rx="6.85" ry="6.85" width="13.70" height="13.70"/>
    <rect x="188.3696" y="127.5000" rx="6.85" ry="6.85" width="13.70" height="13.70"/>
    <rect x="188.3696" y="142.7174" rx="6.85" ry="6.85" width="13.70" height="13.70"/>
    <rect x="203.5870" y="97.0652" rx="6.85" ry="6.85" width="13.70" height="13.70"/>
    <rect x="203.5870" y="112.2826" rx="6.85" ry="6.85" width="13.70" height="13.70"/>
    <rect x="203.5870" y="127.5000" rx="6.85" ry="6.85" width="13.70" height="13.70"/>
    <rect x="203.5870" y="142.7174" rx="6.85" ry="6.85" width="13.70" height="13.70"/>
    <rect x="218.8043" y="97.0652" rx="6.85" ry="6.85" width="13.70" height="13.70"/>
    <rect x="218.8043" y="112.2826" rx="6.85" ry="6.85" width="13.70" height="13.70"/>
    <rect x="218.8043" y="127.5000" rx="6.85" ry="6.85" width="13.70" height="13.70"/>
    <rect x="218.8043" y="142.7174" rx="6.85" ry="6.85" width="13.70" height="13.70"/>
    <rect x="234.0217" y="97.0652" rx="6.85" ry="6.85" width="13.70" height="13.70"/>
    <rect x="234.0217" y="112.2826" rx="6.85" ry="6.85" width="13.70" height="13.70"/>
    <rect x="234.0217" y="127.5000" rx="6.85" ry="6.85" width="13.70" height="13.70"/>
    <rect x="234.0217" y="142.7174" rx="6.85" ry="6.85" width="13.70" height="13.70"/>
    <rect x="249.2391" y="97.0652" rx="6.85" ry="6.85" width="13.70" height="13.70"/>
    <rect x="249.2391" y="112.2826" rx="6.85" ry="6.85" width="13.70" height="13.70"/>
    <rect x="249.2391" y="127.5000" rx="6.85" ry="6.85" width="13.70" height="13.70"/>
    <rect x="249.2391" y="142.7174" rx="6.85" ry="6.85" width="13.70" height="13.70"/>
    <rect x="264.4565" y="97.0652" rx="6.85" ry="6.85" width="13.70" height="13.70"/>
    <rect x="264.4565" y="112.2826" rx="6.85" ry="6.85" width="13.70" height="13.70"/>
  </g>
  <g style="fill:#3C7562" id="National">
    <rect x="264.4565" y="127.5000" rx="6.85" ry="6.85" width="13.70" height="13.70"/>
    <rect x="264.4565" y="142.7174" rx="6.85" ry="6.85" width="13.70" height="13.70"/>
    <rect x="279.6739" y="97.0652" rx="6.85" ry="6.85" width="13.70" height="13.70"/>
    <rect x="279.6739" y="112.2826" rx="6.85" ry="6.85" width="13.70" height="13.70"/>
    <rect x="279.6739" y="127.5000" rx="6.85" ry="6.85" width="13.70" height="13.70"/>
    <rect x="279.6739" y="142.7174" rx="6.85" ry="6.85" width="13.70" height="13.70"/>
    <rect x="294.8913" y="97.0652" rx="6.85" ry="6.85" width="13.70" height="13.70"/>
    <rect x="294.8913" y="112.2826" rx="6.85" ry="6.85" width="13.70" height="13.70"/>
    <rect x="294.8913" y="127.5000" rx="6.85" ry="6.85" width="13.70" height="13.70"/>
    <rect x="294.8913" y="142.7174" rx="6.85" ry="6.85" width="13.70" height="13.70"/>
  </g>
  </g>
  <g id="centerbench">
  <g style="fill:#49BA91" id="Greens">
    <rect x="325.3261" y="59.0217" rx="6.85" ry="6.85" width="13.70" height="13.70"/>
  </g>
  <g style="fill:#F79C25" id="Centre Alliance">
    <rect x="340.5435" y="59.0217" rx="6.85" ry="6.85" width="13.70" height="13.70"/>
  </g>
  <g style="fill:#C99887" id="Katter">
    <rect x="325.3261" y="74.2391" rx="6.85" ry="6.85" width="13.70" height="13.70"/>
  </g>
  <g style="fill:#B3B3B3" id="Independent">
    <rect x="340.5435" y="74.2391" rx="6.85" ry="6.85" width="13.70" height="13.70"/>
    <rect x="325.3261" y="89.4565" rx="6.85" ry="6.85" width="13.70" height="13.70"/>
    <rect x="340.5435" y="89.4565" rx="6.85" ry="6.85" width="13.70" height="13.70"/>
  </g>
  </g>
</g>
</svg>
